<?xml version="1.0" encoding="UTF-8"?>
<svg width="520.49" height="526.35" version="1.1" viewBox="0 0 520.49 526.35" xml:space="preserve" xmlns="http://www.w3.org/2000/svg"><defs><clipPath id="clipPath162"><path d="m2850.2 1658.7c233.46 48.51 446.39 162.35 613.25 318.09-23.68 32.34-46.72 63.05-50.98 70.53 24.93-16.19 49.16-32.75 73.98-48.52 64.93 63.76 122.3 134.02 170.52 209.32-26.15 26.58-50.66 55.51-61.49 83.58 10.25-1.24 51.43-24.25 87.51-40.95 29.64 51.09 55.09 104.28 75.94 159.11-27.46 6.14-54.55 13.11-78.66 23 6.79 1.2 52.81 8.01 92.09 14.42 30.6 91.53 46.88 188.97 25.03 282.86-0.72 3.08-1.47 6.15-2.26 9.2-87.66-31.61-172.2-70.13-252.63-114.76-6.87-48.3-18.85-97.64-10.25-145.09-7.63 42.07-15.25 84.13-22.88 126.2-7.27-4.26-14.52-8.53-21.72-12.89-75.33-45.5-146.64-96.51-213.19-152.3 6.4-22.37 13.04-40.54 19.46-43.65-14.79 7.16-29.21 14.99-43.21 23.4-73.43-63.94-140.68-133.86-200.6-208.81-125.69-157.24-251.45-320.72-231.76-528.17 0.78-8.28 2.72-17.82 9.56-22.76 0.92-0.68 1.94-1.28 3.06-1.77 5.96-2.58 12.88-1.36 19.23-0.04"/></clipPath><clipPath id="clipPath282"><path d="m826.37 1835.1c0.125-114.96 93.328-208.1 208.29-208.1h2045.2v208.1h-2253.5"/></clipPath><clipPath id="clipPath304"><path d="m639.41 1350.4c-0.508-5.95-0.906-11.91-0.906-17.99 0-115.05 93.258-208.31 208.33-208.31h1919.4v226.3h-2126.8"/></clipPath></defs><g transform="matrix(1.3333 0 0 -1.3333 0 526.35)"><g><path d="m271.56 170.74-27.859-5.541-44.547 223.98 27.86 5.541 44.546-223.98" fill="#eceded"/><path d="m247.23 165.9-3.537-0.703-44.547 223.98 3.537 0.703 44.547-223.98" fill="#b6b6b1"/><path d="m271.76 170.78-3.442-0.685-44.546 223.98 3.442 0.685 44.546-223.98" fill="#e4e4e1"/></g><g fill="#b6b6b1"><path d="m211.39 368.4-4.26-0.848-0.233 1.172 4.261 0.848 0.232-1.172"/><path d="m213.3 358.8-4.26-0.848-0.234 1.172 4.261 0.848 0.233-1.172"/><path d="m215.21 349.2-4.261-0.848-0.234 1.172 4.261 0.848 0.234-1.172"/><path d="m217.12 339.6-4.261-0.847-0.233 1.172 4.26 0.847 0.234-1.172"/><path d="m219.03 330-4.261-0.847-0.233 1.172 4.261 0.848 0.233-1.173"/><path d="m220.94 320.4-4.261-0.848-0.233 1.172 4.261 0.848 0.233-1.172"/><path d="m222.84 310.8-4.26-0.847-0.234 1.172 4.262 0.847 0.232-1.172"/><path d="m224.75 301.2-4.26-0.848-0.234 1.172 4.262 0.848 0.232-1.172"/><path d="m226.66 291.6-4.261-0.847-0.232 1.172 4.26 0.847 0.233-1.172"/><path d="m228.57 282-4.262-0.848-0.232 1.172 4.26 0.848 0.234-1.172"/><path d="m230.48 272.4-4.261-0.848-0.233 1.172 4.261 0.848 0.233-1.172"/><path d="m232.39 262.81-4.261-0.848-0.233 1.172 4.261 0.847 0.233-1.171"/><path d="m234.3 253.2-4.26-0.847-0.234 1.172 4.261 0.847 0.233-1.172"/><path d="m236.21 243.6-4.261-0.847-0.234 1.172 4.261 0.847 0.234-1.172"/><path d="m238.12 234-4.261-0.847-0.233 1.172 4.26 0.847 0.234-1.172"/><path d="m240.03 224.4-4.261-0.848-0.233 1.172 4.261 0.848 0.233-1.172"/><path d="m241.94 214.81-4.261-0.848-0.233 1.172 4.262 0.847 0.232-1.171"/><path d="m243.85 205.2-4.26-0.848-0.233 1.172 4.261 0.848 0.232-1.172"/><path d="m245.76 195.6-4.26-0.847-0.233 1.172 4.261 0.847 0.232-1.172"/><path d="m247.67 186.01-4.262-0.848-0.233 1.172 4.261 0.848 0.234-1.172"/><path d="m249.58 176.4-4.262-0.847-0.232 1.172 4.26 0.847 0.234-1.172"/></g><g fill="#382e91"><path d="m65.201 266.03c-0.2934 26.414-7.2149 52.728-19.956 75.868l-0.5363-0.295c12.692-23.051 19.588-49.268 19.88-75.58l0.6121 7e-3"/><path d="m44.95 333.82c-0.6777 0.337-1.3933 0.642-2.1492 0.678s-1.566-0.245-1.9895-0.872c-0.5285-0.784-0.3023-1.899 0.2969-2.63 0.6004-0.732 1.4914-1.154 2.3738-1.495 1.0395-0.401 7.036-2.303 7.768-0.869 0.6555 1.282-5.3551 4.718-6.3 5.188"/><path d="m46.692 326.71c-0.7195 0.237-1.4715 0.436-2.2246 0.364-0.7535-0.072-1.5153-0.465-1.8446-1.147-0.4117-0.851-0.0292-1.921 0.6684-2.56 0.6984-0.639 1.6406-0.93 2.5625-1.141 1.0867-0.25 7.2922-1.277 7.8133 0.246 0.4652 1.363-5.9738 3.908-6.975 4.238"/><path d="m48.156 318.97c-0.754 0.063-1.5317 0.082-2.2481-0.162-0.7156-0.246-1.3656-0.805-1.5273-1.545-0.2028-0.923 0.4179-1.877 1.2453-2.336 0.8269-0.457 1.8113-0.523 2.7574-0.514 1.1144 0.01 7.3891 0.453 7.5418 2.055 0.1363 1.434-6.718 2.413-7.7691 2.502"/><path d="m53.99 296.59c-0.7543 0.063-1.5324 0.083-2.248-0.163-0.7164-0.244-1.3656-0.804-1.5277-1.543-0.2024-0.924 0.4183-1.877 1.2453-2.335 0.8273-0.459 1.8117-0.524 2.7574-0.516 1.1148 0.011 7.3891 0.453 7.5418 2.056 0.1363 1.433-6.7176 2.412-7.7688 2.501"/><path d="m54.038 304.86c-0.5813 0.049-1.1805 0.064-1.732-0.125-0.5516-0.189-1.0524-0.62-1.1774-1.189-0.1559-0.712 0.3223-1.447 0.9598-1.8 0.6375-0.354 1.3957-0.403 2.1242-0.397 0.859 8e-3 5.6934 0.349 5.8109 1.584 0.1051 1.104-5.1758 1.859-5.9855 1.927"/><path d="m70.094 284.17c0.5344 0.234 1.068 0.507 1.4625 0.936 0.3946 0.43 0.6286 1.047 0.4664 1.608-0.2027 0.7-0.973 1.116-1.7019 1.123-0.7285 6e-3 -1.4191-0.313-2.0563-0.666-0.7511-0.416-4.8359-3.025-4.3496-4.165 0.4344-1.021 5.4352 0.838 6.1789 1.164"/><path d="m69.015 290.22c0.5703 0.12 1.1489 0.276 1.6235 0.616 0.4742 0.339 0.8304 0.895 0.7867 1.476-0.0543 0.727-0.7227 1.293-1.4348 1.45-0.7117 0.156-1.4527-0.014-2.1488-0.229-0.8207-0.254-5.3543-1.966-5.1137-3.183 0.2157-1.087 5.491-0.297 6.2871-0.13"/><path d="m58.499 288.34c-0.5371 0.226-1.1027 0.426-1.6855 0.418-0.5832-9e-3 -1.1926-0.264-1.4879-0.766-0.3688-0.629-0.1414-1.475 0.3543-2.009 0.4969-0.533 1.2023-0.815 1.8972-1.035 0.8188-0.26 5.5207-1.434 6.0153-0.296 0.4422 1.018-4.3446 3.371-5.0934 3.688"/><path d="m51.109 312.92c-0.6449 0.055-1.3102 0.071-1.9227-0.139s-1.1679-0.688-1.3066-1.32c-0.1731-0.79 0.3578-1.606 1.0652-1.997 0.7074-0.393 1.5492-0.448 2.3586-0.442 0.9531 9e-3 6.3195 0.388 6.45 1.759 0.1168 1.226-5.7453 2.063-6.6445 2.139"/><path d="m43.847 347.26c-0.3633 0.664-0.7766 1.323-1.3762 1.785-0.6 0.461-1.4254 0.694-2.1309 0.421-0.8824-0.341-1.3339-1.385-1.2597-2.327 0.0742-0.944 0.564-1.8 1.0929-2.584 0.6239-0.924 4.4575-5.911 5.8774-5.154 1.2711 0.678-1.6969 6.933-2.2035 7.859"/><path d="m53.718 339.75c0.2043 0.728 0.3711 1.488 0.2652 2.238-0.1058 0.749-0.532 1.493-1.2277 1.792-0.8688 0.373-1.9219-0.057-2.5285-0.782-0.6063-0.726-0.8559-1.68-1.0262-2.611-0.2008-1.096-0.9508-7.341 0.5937-7.793 1.3817-0.406 3.6375 6.14 3.9235 7.156"/><path d="m58.431 331.02c0.3613 0.664 0.6918 1.37 0.7546 2.123 0.0637 0.754-0.1878 1.575-0.7996 2.02-0.7648 0.557-1.8867 0.371-2.639-0.202-0.7524-0.573-1.2074-1.448-1.5793-2.318-0.4391-1.025-2.5547-6.949-1.1488-7.732 1.2582-0.701 4.9085 5.182 5.4121 6.109"/><path d="m61.99 323.66c0.4886 0.578 0.9558 1.2 1.1707 1.926 0.2156 0.726 0.1363 1.579-0.3723 2.14-0.6356 0.7-1.7719 0.747-2.6246 0.338-0.8535-0.408-1.4766-1.172-2.0184-1.948-0.6379-0.914-3.914-6.283-2.6972-7.337 1.0894-0.942 5.8601 4.076 6.5418 4.881"/><path d="m64.846 316.04c0.5633 0.506 1.1109 1.058 1.4242 1.747 0.3125 0.69 0.3512 1.546-0.0758 2.171-0.5332 0.781-1.6523 0.983-2.5531 0.696-0.9016-0.287-1.6238-0.959-2.2668-1.653-0.7574-0.819-4.7391-5.688-3.6781-6.897 0.9496-1.084 6.3636 3.232 7.1496 3.936"/><path d="m67.097 308.94c0.5632 0.506 1.1113 1.058 1.4242 1.748 0.3125 0.689 0.3512 1.545-0.0754 2.17-0.5332 0.782-1.652 0.984-2.5535 0.697-0.9012-0.287-1.6235-0.959-2.266-1.654-0.7578-0.817-4.7399-5.687-3.6789-6.897 0.95-1.082 6.364 3.232 7.1496 3.936"/><path d="m68.393 302.44c0.5636 0.505 1.1117 1.058 1.4246 1.746 0.3125 0.69 0.3508 1.546-0.0758 2.171-0.5332 0.781-1.6523 0.984-2.5531 0.697-0.9016-0.288-1.6242-0.959-2.2668-1.654-0.7574-0.817-4.7391-5.686-3.6781-6.897 0.9492-1.082 6.3636 3.233 7.1492 3.937"/><path d="m70.013 295.21c0.7469 0.125 1.5055 0.297 2.139 0.711 0.6332 0.415 1.125 1.117 1.1 1.873-0.0316 0.945-0.8679 1.716-1.7824 1.956-0.9144 0.241-1.8847 0.061-2.7996-0.18-1.0773-0.284-7.0496-2.261-6.8027-3.85 0.2215-1.423 7.1051-0.683 8.1457-0.51"/></g><path d="m80.259 236.15c-0.4047 2.035-7.4899 17.86-0.1211 27.932 5.8492 7.992 1.2898 10.144-3.1231 10.458-4.4136 0.313-8.7226-1.358-8.7425 4.205-0.0637 18.318-11.898 32.236-17.055 20.89-2.7871-6.133-9.7981-1.805-9.9235 2.829-0.2652 9.83-4.9043 16.347-9.8015 10.895-4.818-5.36-9.4606-6.399-11.052-2.362-1.5879 4.037-0.3609 12.5-8.5019 10.538-3.2051-0.773-6.5114-8.408-4.0641-14.781 1.3953-3.632 8.7613-13.563-1.0664-12.606-10.13 0.985-7.2715-6.801-2.2508-9.283 1.8676-0.922 18.509-10.831 12.403-12.71-7.2097-2.216-5.7687-8.612 3.527-11.171 4.2223-1.158 14.154-0.889 12.879-4.439-1.277-3.549-0.1188-14.436 6.3707-12.729 18.416 4.845 39.684-3.436 40.522-7.666" fill="#03a6ea"/><g fill="#d5dcea"><path d="m10.438 315.47c0.0164-0.047 7.7082-25.994 31.419-47.228 12.19-10.91 21.824-17.211 29.062-23.259 7.2398-6.055 12.076-11.801 14.877-21.761l0.9547 0.268c-2.8438 10.164-7.8863 16.157-15.196 22.255-7.3113 6.105-16.898 12.37-29.036 23.236-11.746 10.516-19.534 22.218-24.382 31.288-2.4238 4.536-4.1129 8.412-5.1949 11.152-0.541 1.37-0.9301 2.456-1.1836 3.198-0.1269 0.371-0.2195 0.656-0.2805 0.847-0.0613 0.191-0.089 0.286-0.089 0.286l-0.9508-0.282"/><path d="m31.811 304.74c-0.0093-0.031-3.4304-8.186-3.4355-16.611 4e-4 -2.631 0.3351-5.293 1.2297-7.745l0.9316 0.34c-0.843 2.308-1.1699 4.858-1.1695 7.405-8e-4 4.08 0.8383 8.148 1.6804 11.188 0.4208 1.52 0.8418 2.784 1.1567 3.666 0.1574 0.441 0.2887 0.786 0.3801 1.02 0.0914 0.235 0.1414 0.354 0.1414 0.355l-0.9149 0.382"/><path d="m6.1223 288.43c7.8e-4 0 0.21992-0.022 0.63828-0.079 2.9316-0.393 15.35-2.495 24.654-10.064l0.6253 0.77c-10.943 8.878-25.776 10.349-25.818 10.36l-0.09921-0.987"/><path d="m55.56 294.89v-2e-3c0.0133-0.06 0.1907-0.919 0.1903-3.023 4e-4 -4.166-0.6945-13.213-4.7008-30.608l0.9664-0.223c4.0168 17.445 4.7258 26.555 4.7262 30.831 0 2.304-0.2059 3.205-0.2168 3.252l-0.9653-0.227"/><path d="m15.876 266.49c0.0015 0 0.641 0.045 1.7355 0.114 3.2832 0.207 10.644 0.619 16.924 0.619 2.0641 0 4.0114-0.044 5.6528-0.155 1.639-0.108 2.982-0.289 3.7886-0.536l0.2879 0.949c-0.9539 0.287-2.3324 0.463-4.0101 0.577-1.6754 0.112-3.6406 0.157-5.7192 0.157-8.4273 0-18.724-0.736-18.73-0.736l0.0707-0.989"/><path d="m37.011 250.43c4e-4 0 0.0907 0.017 0.2684 0.048 1.2445 0.22 6.6656 1.104 12.925 1.103 5.3312 3e-3 11.27-0.648 15.719-2.843l0.4383 0.889c-4.6918 2.306-10.746 2.943-16.157 2.946-7.2578-1e-3 -13.361-1.166-13.379-1.169l0.1855-0.974"/></g><path d="m259.85 172.52c2.595 2.358 19.345 26.386 40.342 24.48 16.662-1.515 15.812 6.96 12.426 13.623-3.388 6.664-9.558 11.448-1.519 16.318 26.469 16.031 36.324 45.279 15.409 42.874-11.307-1.302-11.139 12.617-4.538 16.831 14.003 8.937 19.404 21.326 7.247 23.674-11.955 2.312-17.499 8.13-13.036 13.947 4.464 5.812 17.786 11.4 7.861 21.481-3.909 3.969-17.841 2.111-24.941-6.978-4.044-5.179-12.015-24.488-19.18-9.423-7.39 15.524-16.177 4.61-15.401-4.819 0.289-3.508 0.422-36.227-7.612-29.019-9.483 8.511-17.49 0.859-13.108-14.829 1.997-7.121 11.029-21.269 4.778-22.511-6.25-1.24-21.006-12.39-12.887-20.301 23.039-22.451 29.554-60.454 24.159-65.348" fill="#f9e004"/><g fill="#d5dcea"><path d="m314.22 342.42c-0.031-0.039-30.872-33.715-40.966-86.426-5.187-27.121-5.925-46.534-8.388-62.309-2.469-15.781-6.618-27.889-18.656-40.66l0.722-0.681c12.19 12.913 16.445 25.325 18.914 41.188 2.474 15.868 3.207 35.222 8.382 62.276 5.016 26.209 15.202 47.704 24.134 62.642 4.465 7.469 8.617 13.299 11.65 17.259 1.517 1.98 2.754 3.493 3.61 4.509 0.429 0.508 0.762 0.892 0.988 1.149 0.225 0.257 0.341 0.382 0.341 0.383l-0.731 0.67"/><path d="m317.06 302.02c-0.02-3e-3 -6.382-0.933-14.178-3.623-7.793-2.694-17.033-7.135-22.792-14.253l0.771-0.624c5.549 6.875 14.637 11.283 22.345 13.939 3.852 1.33 7.357 2.226 9.895 2.788 1.27 0.282 2.298 0.48 3.007 0.607 0.355 0.065 0.63 0.111 0.815 0.141 0.186 0.03 0.28 0.043 0.28 0.043l-0.143 0.982"/><path d="m271.35 325.51s0.029-0.062 0.087-0.189c0.868-1.906 7.894-17.966 7.89-36.273 0-3.018-0.19-6.096-0.629-9.182l0.982-0.139c0.446 3.137 0.639 6.262 0.639 9.321-5e-3 19.794-8.059 36.85-8.072 36.885l-0.897-0.423"/><path d="m323.66 259.16-0.017-0.016c-0.46-0.432-9.977-8.879-52.742-22.8l0.307-0.943c44.217 14.4 53.043 22.956 53.144 23.048l-0.692 0.711"/><path d="m248.05 292.35c1e-3 -2e-3 0.348-0.496 0.963-1.383 2.152-3.103 7.566-10.99 12.689-19.092 2.561-4.05 5.05-8.155 7.019-11.737 1.97-3.577 3.42-6.654 3.895-8.556l0.962 0.242c-0.605 2.385-2.443 6.083-4.869 10.368-7.274 12.831-19.843 30.721-19.848 30.728l-0.811-0.57"/><path d="m243.15 247.8c1e-3 0 0.081-0.09 0.235-0.267 1.159-1.328 6.42-7.495 11.579-15.663 5.162-8.164 10.208-18.34 10.979-27.608l0.988 0.083c-0.861 10.194-6.631 21.191-12.168 29.674-5.541 8.479-10.863 14.43-10.873 14.442l-0.74-0.661"/></g><path d="m324.51 210.96c1.461 1.572 3.301 3.256 5.549 3.103 4.255-0.289 4.538-5.912 3.502-9.704 3.673 7.094 7.727 14.587 15.058 18.652 0.952 0.529 2.004 1.002 3.116 0.97 2.192-0.063 3.795-2.139 3.931-4.145 0.134-2.005-0.802-3.926-1.718-5.751 8.384 8.389 20.847 13.222 33.257 12.896 0.984-0.026 2.088-0.136 2.71-0.836 0.682-0.769 0.478-1.898 0.177-2.85-1.915-6.073-6.358-11.444-12.22-14.775 3.72 1.976 8.261-2.759 7.094-6.551-1.167-3.793-5.462-5.981-9.541-7.231-4.078-1.25-8.531-2.08-11.684-4.76 1.882 1.681 5.481 0.185 6.004-2.175 0.522-2.36-1.304-4.732-3.629-5.854-2.324-1.122-5.041-1.28-7.665-1.415-3.69-0.19-7.38-0.38-11.07-0.569 0.162-1.173 0.832-2.28 1.832-3.026-1.48-4.31-7.197-5.787-12.049-6.599-12.429-2.081-26.681-4.858-38.927-1.138 1.295 14.899 16.126 30.843 26.273 41.758" fill="#03a6ea"/><g fill="#f1f8f7"><path d="m367.95 203.65c0.827 0.349 2.049 0.979 2.35 0.028 0.442-1.396-4.193-2.466-4.293-1.016-0.04 0.585 1.387 0.697 1.943 0.988"/><path d="m338.12 177.29c0.826 0.349 2.048 0.978 2.35 0.027 0.442-1.395-4.193-2.466-4.293-1.015-0.04 0.585 1.387 0.697 1.943 0.988"/><path d="m351.08 184.42c0.896-0.145 2.292-0.264 1.949-1.203-0.503-1.378-4.98 0.159-4.16 1.403 0.33 0.502 1.573-0.149 2.211-0.2"/><path d="m326.42 189.62c0.897-0.144 2.293-0.264 1.95-1.203-0.503-1.378-4.98 0.159-4.16 1.403 0.331 0.502 1.574-0.149 2.21-0.2"/><path d="m348.46 207.81c-0.196-0.813-0.385-2.087-1.395-1.732-1.481 0.519 0.386 4.552 1.707 3.748 0.533-0.323-0.229-1.434-0.312-2.016"/><path d="m318.32 196.01c-0.195-0.815-0.386-2.087-1.396-1.734-1.48 0.521 0.387 4.552 1.708 3.749 0.534-0.324-0.23-1.434-0.312-2.015"/><path d="m373.55 214.44c-0.769-0.444-1.891-1.216-2.326-0.308-0.638 1.33 3.805 2.948 4.111 1.522 0.124-0.575-1.276-0.858-1.785-1.214"/><path d="m358.37 193.54c-0.893 0.164-2.285 0.313-1.917 1.245 0.539 1.367 4.973-0.269 4.122-1.494-0.344-0.495-1.57 0.183-2.205 0.249"/><path d="m372.2 199.19c-0.77-0.445-1.891-1.215-2.326-0.308-0.638 1.33 3.804 2.947 4.11 1.521 0.124-0.575-1.275-0.857-1.784-1.213"/><path d="m332.7 199.35c-0.164-0.82-0.305-2.098-1.328-1.777-1.5 0.471 0.211 4.561 1.562 3.802 0.546-0.307-0.175-1.442-0.234-2.025"/><path d="m361.62 211.56c-0.164-0.82-0.305-2.098-1.329-1.777-1.5 0.472 0.211 4.562 1.563 3.802 0.546-0.307-0.175-1.441-0.234-2.025"/><path d="m314.12 180.49c-0.164-0.82-0.305-2.099-1.327-1.777-1.5 0.471 0.21 4.561 1.561 3.801 0.546-0.306-0.175-1.44-0.234-2.024"/><path d="m326.27 175.83c0.906-0.072 2.309-0.08 2.057-1.043-0.371-1.413-4.977-0.239-4.279 1.065 0.282 0.527 1.582-0.023 2.222-0.022"/><path d="m342.81 189.35c0.679 0.555 1.646 1.486 2.238 0.657 0.869-1.216-3.22-3.484-3.779-2.123-0.226 0.548 1.103 1.039 1.541 1.466"/></g><path d="m367.3 210.22c-25.65-17.913-53.114-33.643-81.924-46.924l0.365-0.791c28.856 13.302 56.364 29.058 82.058 47.001l-0.499 0.714" fill="#1b4063"/><g transform="scale(.1)"><g clip-path="url(#clipPath162)"><path d="m3795.1 2739.4c-87.66-31.61-172.2-70.13-252.63-114.76-6.87-48.3-18.85-97.64-10.25-145.09-7.63 42.07-15.25 84.13-22.88 126.2-7.27-4.26-14.52-8.53-21.72-12.89-75.33-45.5-146.64-96.51-213.19-152.3 6.4-22.37 13.05-40.54 19.46-43.65-14.79 7.16-29.21 14.99-43.21 23.4-73.43-63.94-140.69-133.86-200.6-208.81-125.69-157.24-251.45-320.72-231.76-528.17 0.78-8.28 2.72-17.82 9.56-22.76 325.1 341.84 705.77 699.05 969.48 1069.6-0.71 3.08-1.47 6.15-2.26 9.2" fill="#382e91"/><path d="m2827.9 1660.6c0.92-0.68 1.94-1.28 3.06-1.77 5.96-2.58 12.88-1.36 19.23-0.04 233.46 48.5 446.39 162.35 613.25 318.09-23.68 32.34-46.72 63.05-50.98 70.53 24.93-16.19 49.16-32.75 73.98-48.52 64.93 63.76 122.31 134.02 170.52 209.32-26.15 26.58-50.66 55.51-61.49 83.58 10.25-1.24 51.43-24.25 87.51-40.95 29.64 51.09 55.09 104.28 75.93 159.11-27.45 6.14-54.54 13.11-78.65 23 6.79 1.2 52.81 8.01 92.09 14.42 30.6 91.53 46.88 188.97 25.03 282.86-263.71-370.58-644.38-727.79-969.48-1069.6" fill="#262349"/><g fill="#785db4"><path d="m3796 2740.1c-7.71-23.47-22.99-44.63-38.67-65.55-208.32-278.54-457.34-529.01-705.69-778.63-92.26-92.75-184.52-185.49-276.79-278.23l6.78-6.75c92.26 92.75 184.53 185.49 276.78 278.24 248.35 249.63 497.71 500.38 706.58 779.65 15.69 20.99 31.71 42.88 40.09 68.28l-9.08 2.99"/><path d="m3418.4 2261.6c65.16-57.18 142.74-102.29 226.57-131.75l3.17 9.02c-82.69 29.06-159.23 73.57-223.44 129.92l-6.3-7.19"/><path d="m3326.5 2172.5c61.15-68.04 145.19-118.38 237.11-142.08l2.38 9.26c-90.11 23.21-172.59 72.66-232.38 139.21l-7.11-6.39"/><path d="m3476.5 2326.6c-4.55 14.9-6.08 30.36-6.08 46.1 0 13.47 1.13 27.13 2.39 40.73 8.38 90.09 21.51 179.72 39.34 268.45l-9.37 1.88c-17.9-89.06-31.08-179.02-39.49-269.44-1.27-13.67-2.42-27.62-2.42-41.62 0-16.35 1.58-32.79 6.49-48.89l9.14 2.79"/><path d="m3439.7 2288.5c-12.32 49.74-17.07 100.24-17.07 151.05-0.01 79.78 11.73 160.31 24.21 239.69l-9.45 1.48c-12.48-79.45-24.32-160.46-24.32-241.17 0-51.4 4.81-102.69 17.35-153.35l9.28 2.3"/><path d="m3676.7 2558.7c77.99 18.12 149.4 57.8 202.75 112.74l-6.86 6.66c-51.96-53.53-121.8-92.38-198.05-110.09l2.16-9.31"/><path d="m3637.7 2510.5c74.03 21.33 157.48 54.28 226.25 86.67l-4.08 8.65c-68.32-32.19-151.45-65-224.81-86.13l2.65-9.19"/><path d="m3245.4 2085.2c-47.42 31.45-79.6 79.79-99.14 130.77-19.56 50.99-27.6 105.12-35.44 159.18l-9.46-1.37c7.86-54.07 15.93-108.94 35.97-161.23 20.07-52.33 53.24-102.43 102.79-135.31l5.28 7.96"/><path d="m3213.6 2052.7c-83.94 75.63-134.75 181.41-138.57 288.06l-9.56-0.35c3.95-109.46 55.95-217.49 141.73-294.81l6.4 7.1"/><path d="m3144.8 1988.5c28.93-46.45 71.81-84.56 119.78-114.24 47.97-29.66 101.03-51.24 154.9-69.21l3.02 9.07c-53.47 17.84-105.84 39.17-152.89 68.27-47.04 29.09-88.79 66.33-116.7 111.16l-8.11-5.05"/><path d="m3081 1921.9c-50.18 33.05-86.82 82.11-108.35 135.3-19.87 49.1-27.5 101.76-27.5 154.14 0 4.39 0.06 8.77 0.16 13.14l-9.55 0.23c-0.11-4.45-0.17-8.91-0.17-13.37 0.01-53.3 7.75-107.2 28.2-157.72 22.18-54.78 59.92-105.41 111.95-139.7l5.26 7.98"/></g></g></g><g><path d="m131.3 279.29 60.015 31.98 58.245-31.664-25.583-11.399v-13.773s-29.35-6.728-70.956-0.317v15.674l-21.721 9.499" fill="#107f92"/><path d="m216.68 271.56v-15.06h-11.386v17.961c-17.437 3.033-38.956 1.279-52.271-5.336v-13.949c42.316-8.295 70.956-0.694 70.956-0.694v13.761c-2.156 1.262-4.616 2.365-7.299 3.317" fill="#04a1c9"/><path d="m216.68 256.5v15.06c-3.468 1.228-7.316 2.193-11.386 2.901v-17.961h11.386" fill="#18b4d9"/><path d="m157.93 257.31c3.86-1.373 32.3-10.73 59.558 0.474-24.818 5.565-49.224 1.711-59.558-0.474" fill="#11495a"/><path d="m191.32 311.27 0.633-20.74-38.927-21.404-21.721 9.643 60.015 32.501" fill="#04a1c9"/><path d="m191.32 311.27 0.633-20.74 37.075-20.74 20.537 9.3-58.245 32.18" fill="#00acda"/><path d="m184.91 320.87-5.028 5.03-0.155 0.155-0.05 0.049-5e-3 -2e-3c-0.238 0.188-0.533 0.305-0.859 0.313-0.327 8e-3 -0.627-0.097-0.873-0.272l-6e-3 2e-3 -0.052-0.047-0.162-0.148-5.256-4.792c-0.116-0.111-0.176-0.259-0.179-0.407l-0.135-5.811c-0.011-0.482 0.37-0.881 0.852-0.892l11.042-0.256c0.482-0.012 0.881 0.369 0.892 0.851l0.135 5.811c3e-3 0.15-0.05 0.3-0.161 0.416" fill="#f9e004"/><path d="m181.56 319.37h-6e-3c-0.037-1.579-1.329-2.833-2.899-2.833h-0.068c-1.579 0.037-2.834 1.328-2.834 2.898l1e-3 0.068c0.036 1.58 1.328 2.834 2.899 2.834l0.068-1e-3c1.578-0.036 2.833-1.327 2.833-2.898v-0.068h0.012l1e-3 0.068c0 1.578-1.26 2.874-2.845 2.911l-0.069 1e-3c-1.578 0-2.875-1.26-2.911-2.846l-1e-3 -0.069c0-1.577 1.26-2.873 2.845-2.91l0.069-1e-3c1.577 0 2.874 1.26 2.911 2.846h-6e-3" fill="#428ad1"/><path d="m184.08 315.53 0.154 6.684-3.122 3.27-6.974 0.162c-0.482 0.011-0.881-0.37-0.892-0.851l-0.209-9.009 11.043-0.256" fill="#f5f6f4"/><path d="m172.28 320.75-0.135-5.812c-0.011-0.482 0.37-0.881 0.852-0.892l5.593 2.968-6.31 3.736" fill="#f9e004"/><path d="m178.59 317.01 5.449-3.224c0.482-0.012 0.881 0.369 0.892 0.851l0.135 5.812-6.476-3.439" fill="#f9e004"/><path d="m173 314.05 11.042-0.256-5.449 3.224z" fill="#fab40a"/><path d="m181.12 325.49-0.054-2.324c-0.011-0.481 0.37-0.881 0.852-0.893l2.324-0.053-3.122 3.27" fill="#cfd7d4"/></g><g fill="#dbe3e2"><path d="m182.47 321.1-7.265 0.169 0.013 0.581 7.266-0.169-0.014-0.581"/><path d="m182.44 319.93-7.265 0.168 0.014 0.582 7.265-0.168-0.014-0.582"/><path d="m179.59 322.32-4.359 0.102 0.013 0.581 4.359-0.101-0.013-0.582"/></g><g><path d="m136.63 298.9-5.029 5.031-0.155 0.154-0.049 0.05-6e-3 -2e-3c-0.238 0.187-0.533 0.305-0.859 0.312-0.326 8e-3 -0.627-0.097-0.873-0.272l-6e-3 2e-3 -0.051-0.047-0.162-0.147-5.257-4.793c-0.116-0.111-0.176-0.258-0.179-0.407l-0.135-5.811c-0.011-0.482 0.37-0.881 0.852-0.892l11.042-0.256c0.482-0.012 0.881 0.369 0.892 0.852l0.135 5.81c4e-3 0.15-0.05 0.3-0.16 0.416" fill="#f9e004"/><path d="m133.27 297.4h-6e-3c-0.037-1.579-1.328-2.833-2.899-2.833l-0.068 1e-3c-1.579 0.036-2.834 1.327-2.834 2.898l1e-3 0.068c0.037 1.579 1.328 2.834 2.899 2.834l0.069-1e-3c1.578-0.037 2.833-1.328 2.833-2.898l-1e-3 -0.069h0.012l1e-3 0.069c0 1.577-1.26 2.874-2.845 2.91l-0.069 1e-3c-1.578 0-2.875-1.26-2.911-2.846l-1e-3 -0.068c0-1.578 1.26-2.874 2.846-2.911l0.068-1e-3c1.578 0 2.875 1.26 2.911 2.846h-6e-3" fill="#428ad1"/><path d="m135.8 293.56 0.155 6.684-3.123 3.271-6.974 0.162c-0.481 0.01-0.881-0.371-0.892-0.852l-0.209-9.009 11.043-0.256" fill="#f5f6f4"/><path d="m124 298.78-0.135-5.812c-0.011-0.482 0.37-0.881 0.852-0.892l5.593 2.969-6.31 3.735" fill="#f9e004"/><path d="m130.31 295.04 5.449-3.225c0.482-0.012 0.881 0.369 0.892 0.852l0.135 5.811-6.476-3.438" fill="#f9e004"/><path d="m124.72 292.08 11.042-0.256-5.449 3.225z" fill="#fab40a"/><path d="m132.83 303.52-0.054-2.325c-0.011-0.481 0.371-0.88 0.852-0.892l2.325-0.054-3.123 3.271" fill="#cfd7d4"/></g><g fill="#dbe3e2"><path d="m134.18 299.12-7.264 0.169 0.013 0.581 7.265-0.169-0.014-0.581"/><path d="m134.16 297.96-7.264 0.168 0.013 0.582 7.265-0.169-0.014-0.581"/><path d="m131.3 300.35-4.359 0.102 0.014 0.581 4.359-0.101-0.014-0.582"/></g><g><path d="m162.55 312.26c0-1.624-1.316-2.942-2.941-2.942h-25.486c-1.623 0-2.941 1.318-2.941 2.942v37.249c0 1.624 1.318 2.941 2.941 2.941h17.645l10.782-10.783v-29.407" fill="#efefec"/><path d="m152.75 342.65 9.802-9.674v8.694l-0.98 0.98h-8.822" fill="#e4e4e1"/><path d="m151.77 352.45v-7.842c0-1.624 1.317-2.941 2.941-2.941h7.841l-10.782 10.783" fill="#f9e004"/></g><g fill="#b3b3af"><path d="m156.67 326.96h-19.606v1.96h19.606v-1.96"/><path d="m156.67 323.04h-19.606v1.961h19.606v-1.961"/><path d="m156.67 319.12h-19.606v1.961h19.606v-1.961"/><path d="m151.77 330.88h-14.705v1.96h14.705v-1.96"/></g><g><path d="m254.67 213.44v44.882h-194.41c-12.402 0-22.444-10.043-22.444-22.44v-8.507c1.7644-10.632 11.305-18.476 22.444-18.476h194.41v44.886-40.345" fill="#2583ce"/><path d="m254.67 253.79h-191.94c-10.9 0-19.828-8.371-20.743-19.031h212.68v19.031" fill="#e9e9e7"/><path d="m41.982 234.76c-0.0507-0.595-0.091-1.192-0.091-1.799 0-11.505 9.3258-20.831 20.834-20.831h191.94v22.63h-212.68" fill="#fff"/></g><g fill="#e9e9e7"><path d="m254.67 227h-215.59v2.665h215.59v-2.665"/><path d="m254.67 222.54h-215.59v2.666h215.59v-2.666"/><path d="m254.67 218.09h-215.59v2.666h215.59v-2.666"/><path d="m254.67 213.63h-215.59v2.665h215.59v-2.665"/></g><g><path d="m307.98 164.02v44.885h-206.99c-12.399 0-22.445-10.044-22.445-22.441v-8.507c1.7679-10.634 11.308-18.477 22.445-18.477h206.99v44.887" fill="#382e91"/><path d="m307.98 204.36h-204.52c-11.504 0-20.83-9.326-20.83-20.829l8e-4 -0.022h225.35v20.851" fill="#e9e9e7"/><path d="m82.637 183.51c0.0125-11.496 9.3328-20.81 20.829-20.81h204.52v20.81h-225.35" fill="#fff"/></g><g transform="scale(.1)"><g clip-path="url(#clipPath282)" fill="#e9e9e7"><path d="m2982.3 1784.6h-2155.9v26.66h2155.9v-26.66"/><path d="m2982.3 1740h-2155.9v26.65h2155.9v-26.65"/><path d="m2982.3 1695.5h-2155.9v26.66h2155.9v-26.66"/><path d="m2982.3 1650.9h-2155.9v26.65h2155.9v-26.65"/></g></g><g><path d="m276.63 113.72v44.882h-194.41c-12.402 0-22.445-10.043-22.445-22.44v-8.507c1.7645-10.632 11.305-18.476 22.445-18.476h194.41v44.886" fill="#f9e004"/><path d="m276.63 154.07h-191.94c-10.9 0-19.828-8.371-20.743-19.031h212.68v19.031" fill="#e9e9e7"/><path d="m63.941 135.04c-0.0508-0.595-0.0906-1.191-0.0906-1.799 0-11.505 9.3258-20.831 20.833-20.831h191.94v22.63h-212.68" fill="#fff"/></g><g transform="scale(.1)"><g clip-path="url(#clipPath304)" fill="#e9e9e7"><path d="m2766.3 1272.8h-2155.9v26.65h2155.9v-26.65"/><path d="m2766.3 1228.3h-2155.9v26.66h2155.9v-26.66"/><path d="m2766.3 1183.7h-2155.9v26.66h2155.9v-26.66"/><path d="m2766.3 1139.2h-2155.9v26.65h2155.9v-26.65"/></g></g><path d="m98.063 319.12c1.264 0.189 4.3127-1.795 4.9157-5.443 2.219-13.411 1.303-25.08 1.303-25.08s-0.28-3.953-2.417-3.081c-2.1466 0.875-4.6353 9.382-6.4205 26.644-0.5168 4.985 0.475 6.638 2.6188 6.96" fill="#03a6ea"/><g fill="#f79072"><path d="m118.3 277.6s1.866-0.977 2.351-1.915c0.338-0.655 1.41-3.997 1.41-3.997s-1.1 0.699-1.54 2.038c-0.632 1.959-2.221 3.874-2.221 3.874"/><path d="m119.74 275.68c1.233-0.491 2.005-1.811 2.544-3.584 0.516-1.682 1.585-2.072 1.585-2.072s-0.213 1.123-1.285 3.654c-0.3 0.711-0.642 1.417-0.988 2.095-1.152 2.244-5.016 1.172-1.856-0.093"/><path d="m116.46 278.66c0.103-0.923 1.384-2.124 1.272-2.693-0.33-1.645-1.004-2.436-0.983-2.436 1.951-0.012 2.257 2.74 3.107 3.586 0.846 0.845-3.655 3.93-3.396 1.543"/><path d="m107.2 284.45c3.238-1.277 6.976-2.668 8.429-4.081 2.063-2.003 2.25-3.944 4.106-4.69 0.204-0.079 0.381-0.204 0.578-0.31 0.51-0.284 1.133-0.508 1.33-0.655 0.223-0.163 0.8-0.698 0.655-0.394-1.265 2.721-2.947 5.639-3.541 6.063-1.211 0.864-8.129 5.37-11.044 6.513-3.282 1.29-4.88-0.722-0.513-2.446"/><path d="m119.83 275.96s0.274 0.664 0.801 0.477c0.864-0.301 2.217-1.565 2.679-2.038 0.509-0.524 2.524-3.402 2.524-3.402s-1.263 0.337-2.076 1.495c-1.182 1.683-3.928 3.468-3.928 3.468"/><path d="m103.36 289.86c-2.308-0.613-2.476-1.039-2.644-2.284 5.436-4.251 16.893-6.434 16.893-6.434l-14.249 8.718"/></g><g><path d="m109.68 281.51c0.275 1.503 1.355 2.919 1.989 3.874-3.009 2.247-5.84 3.734-9.133 5.713-1.226 0.737-2.7635-0.501-2.5818-1.752 0.3318-2.334 0.7488-3.289 3.2468-4.748 2.286-1.333 4.664-2.354 6.479-3.087" fill="#03a6ea"/><path d="m71.282 267.02-0.0293 0.107 0.0653 0.084c1.0551 5.458 2.6855 10.775 5.1707 15.58 1.7562 3.391 5.298 6.605 6.857 8.228 4.0254-2.195 8.0024-1.174 11.766-4.021 0.4848-1.545 0.8781-3.236 1.1653-5.064 0.5707-3.286 1.0656-6.341 1.4886-9.197 5.8364-0.548 20.237-1.652 25.654-2.718 3.211-0.739 3.398-1.988 3.899-2.394-0.284-5.239-4.536-8.198-7.111-12.396-0.455-0.743-34.919-0.098-40.84-0.4 0.8007-0.401-10.979 1.18-8.0868 12.191" fill="#29274b"/><path d="m125.1 260.2c0.945 1.095 1.472 2.464 2.176 3.679 0.549 2.344 0.542 3.916-0.132 4.473-2.548 2.106-11.238-2.278-33.096-35.046-4.7582-7.134-14.172-20.774-12.161-19.264 2.2336 1.673 4.0356 3.676 6.1403 5.858 29.87 30.963 32.624 35.142 37.072 40.3" fill="#f79072"/><path d="m81.167 215.26 3.8734 6.202c0.3836 0.612 0.9844 0.925 1.5653 0.892l-2.9832-4.773c-0.5774-0.927-0.4352-2.171 0.3168-2.779 0.2547-0.207 0.5457-0.308 0.8425-0.321l-0.891-1.427c-0.5746-0.924-1.6523-1.181-2.4047-0.569-0.7535 0.607-0.8949 1.85-0.3191 2.775" fill="#1d3c59"/><path d="m94.912 287.22c-0.0097-0.162-0.7847-0.244-1.7304-0.187l-10.701 0.671c-0.9457 0.056-1.7047 0.234-1.6949 0.399l0.0359 0.608c0.0094 0.161 0.7844 0.243 1.7301 0.183l10.701-0.665c0.9461-0.059 1.7043-0.239 1.695-0.4l-0.0356-0.609" fill="#1e1a19"/><path d="m119.03 257.78c0.751 1.194 0.981 2.623 1.446 3.917 0.11 2.359-0.3 3.731-0.945 4.32-2.935 2.667-9.392-2.275-19.844-23.776-5.2679-10.837-9.4808-20.922-16.602-26.722-1.0395-0.846-1.3106-0.961-1.6461-1.945-1.0359-3.053-0.5781-6.855-0.4492-6.735 4.9879 4.567 24.118 28.93 38.041 50.941" fill="#f9b18a"/><path d="m78.945 209.08 3.3614 6.498c0.3289 0.64 0.9062 0.998 1.4878 1.018l-2.589-5.009c-0.5004-0.963-0.2586-2.194 0.5422-2.739 0.2679-0.187 0.5672-0.262 0.8652-0.251l-0.7715-1.496c-0.5-0.968-1.5527-1.308-2.3531-0.763-0.8008 0.548-1.043 1.773-0.543 2.742" fill="#1b4063"/></g><g fill="#29274b"><path d="m105.04 322.85c0.453 1.48 0.096 3.119-1.023 4.188-0.577 0.551-1.225 1.047-1.942 1.474-5.0188 2.979-11.452 1.415-14.374-3.496-2.9179-4.916-1.2172-11.316 3.8-14.3 3.9657-2.356 8.8099-1.866 12.11 0.867 1.27 1.052 1.755 2.761 1.326 4.353-0.606 2.244-0.595 4.638 0.103 6.914"/><path d="m92.177 333.54c-0.6652 0.396-1.3527 0.714-2.0527 0.978-0.2555-0.697-0.5719-1.387-0.9652-2.05-3.1637-5.32-9.7133-7.4-15.418-5.229-2.0629-5.596 0.1609-12.098 5.5809-15.321 6.0984-3.623 13.92-1.722 17.471 4.248 3.5469 5.971 1.4778 13.749-4.6168 17.374"/><path d="m107.75 328.94c-1.152-5.329-6.137-8.769-11.127-7.69-4.9907 1.082-8.1028 6.278-6.9473 11.608 1.1523 5.328 6.1371 8.772 11.131 7.689 4.99-1.082 8.1-6.279 6.944-11.607"/></g><g><path d="m103.35 335.9c-0.135 0.072-0.281 0.141-0.427 0.201-0.693-1.707-2.563-3.5-5.1028-4.676-0.6168-0.284-1.2367-0.512-1.8434-0.691l-0.3613-1.664c-0.5328-2.463 1.1199-4.915 3.6957-5.471 2.5758-0.557 5.0938 0.987 5.6298 3.451l0.814 3.75c-1.098 1.131-1.985 2.944-2.405 5.1" fill="#f9b18a"/><path d="m83.71 317.81s2.466-9.245 7.2371-11.482c4.775-2.233 7.4023-1.679 8.5582 0.175 1.1525 1.852 2.2045 5.754 1.2715 7.009-0.9293 1.251-1.8332 2.501-2.4336 4.583-0.4907 1.698 0.3582 4.427 1.3968 6.457 1.0398 2.027 2.7928 1.795 1.2888 3.174-1.5013 1.377-0.568 2.226-2.3497 2.311-1.7855 0.086-2.6508 0.949-3.009-0.701-0.6523-3.01-1.3207-7.293-3.4219-8.868-2.3304-1.746-4.2996-2.005-8.5382-2.658" fill="#f9b18a"/><path d="m95.591 329.03c-0.8215-3.206 0.2637-5.536 1.043-6.302 0.2781-0.273 1.2676-0.905 1.9465-1.084 0.1867 0.652 0.423 1.307 0.6929 1.928-2.564 0.563-4.3054 3.026-3.6824 5.458" fill="#f79072"/><path d="m101.42 304.14c0.28 5.625-0.305 7.959-1.411 10.844-0.2906 0.761-1.0363 1.527-1.291 2.156 1.814-11.291-6.5176-6.375-9.5203-0.873-1.8883-1.779-8.6899-2.994-8.7059-3.351-0.1555-3.904 0.0484-7.811-0.0715-11.717-0.0578-1.66 0.843-3.209 1.9274-4.305-0.0875-0.297-0.1454-0.617-0.1618-0.959l-0.2136-1.893c-0.0571-1.562-3.234-6.892-2.1551-6.966l15.679-0.843c1.0742-0.076 2.4855 3.132 2.5434 4.696l1.6144 7.652c0.0063 0.134-0.0035 0.266-0.0098 0.399 1.1519 1.348 1.6819 3.305 1.7759 5.16" fill="#f9e004"/><path d="m88.814 318.84s-6.2274 0.616-7.8344-2.217c-2.1344-3.754-1.6074-7.768-1.2238-10.445 0.4422-3.112 0.2547-7.145 0.9429-11.162 0.8395-4.879-4.6046-12.226-3.7726-11.438 0.1656 0.156 7.3586 2.362 10.523 3.773 3.1664 1.41 1.5079 7.679 1.2746 9.465-0.5226 4.028 3.0317 11.918 2.4758 15.141-0.5871 3.421-2.3851 6.883-2.3851 6.883" fill="#03a6ea"/><path d="m102.76 311.06c-0.161 1.233-0.833 2.58-1.776 4.225-0.303 0.525-0.955 1.109-1.607 1.612-1.0171 0.784-0.9042 0.68-0.5097-0.242 0.7258-1.713 1.6427-5.051 0.8937-11.704-0.2191-1.948-1.9527-6.464-2.8886-9.443-0.9368-2.982-2.0457-9.241-2.0457-9.241s0.8972-2.722 1.2226-2.693c0.5039 0.045 1.5328 6.071 2.9891 10.266 3.4986 10.083 4.4356 11.786 3.7216 17.22" fill="#03a6ea"/><path d="m84.113 318.01c1.1914 0.543 3.2027 0.752 3.7293-1.826 2.3176-11.286 3.6828-33.575 3.6828-33.575s-1.0395-1.075-3.2637-0.498c-3.8129 0.982-3.8187 8.937-7.1472 27.233-0.9618 5.284 0.991 7.754 2.9988 8.666" fill="#32bdee"/><path d="m101.28 278.6s5.591-4.747 6.078-4.925c0.485-0.181 0.817 0.023 1.963 0.079 1.143 0.055 1.356 0.013 2.259 3e-3 0.911-0.01 1.011-0.035 1.011-0.035s-0.071-0.503-0.425-0.587c-0.317-0.074-1.088-0.063-1.353-0.133-0.269-0.074 0.642-0.02 1.959-0.323 1.311-0.299 2.567-0.762 3.093-0.997 0.335-0.147 0.381-0.175 0.378-0.195-0.026-0.161-0.058-0.308-0.223-0.314-0.146-7e-3 -0.649 0.103-0.62 0.076 0.102-0.107 0.856-0.486 0.988-0.541 0.139-0.054 0.329-0.126 0.442-0.184 0.232-0.125 0.077-0.402-0.365-0.462 0 0-0.133-0.195-0.265-0.217l-0.19-0.036-0.245-3e-3c-0.297-0.026-0.588-0.021-0.869 0-0.113 7e-3 -1.094 0.229-1.104 0.168l0.733-0.349c-0.052-0.128-0.222-0.273-0.361-0.239-0.249 0.057-0.627 0.139-1.65 0.424-1.127 0.309-1.35 0.46-2.85 0.495-1.308 0.028-1.689 0.304-2.422 0.968-2.514 2.289-8.0183 4.361-8.764 5.018-0.7484 0.658 2.802 2.309 2.802 2.309" fill="#f9b18a"/><path d="m100.12 273.93c1.333 0.751 1.375 2.455 2.201 4.311-3.874 2.944-6.6658 5.778-10.953 8.523-1.5946 1.021-5.1196-0.072-5.5809-1.25-0.7848-1.997 5.7781-6.438 9.0934-8.385 1.9082-1.115 3.8222-2.782 5.2398-3.199" fill="#32bdee"/><path d="m95.938 269.65h30.264v0.621h-30.264v-0.621" fill="#cfd7d4"/><path d="m109.3 270.31c0-0.482 0.343-0.875 0.766-0.875h15.517c0.423 0 0.998 0.309 1.514 1.531l7.67 14.009c0 0.611-0.471 0.976-0.894 0.879l-15.925-0.479c-0.422-0.099-0.765-0.424-1.003-1.061l-7.645-14.004" fill="#cfd7d4"/><path d="m111.17 269.65h-15.307c0.5426-0.289 1.45-0.477 2.4797-0.477h25.503c1.029 0 1.936 0.188 2.479 0.477h-15.154" fill="#b9c0bd"/><path d="m89.301 334.98c-1.1551-2.028-2.0238-4.422-4.0379-5.602-3.0313-1.775-7.0723 0.098-10.34-1.191-1.1476-0.453-2.1187-1.274-2.9308-2.203-2.6742-3.059-3.7121-7.525-2.4703-11.393 1.2422-3.869 4.8015-6.943 8.8371-7.416 4.0351-0.474 8.3 1.795 9.9945 5.487 1.65 3.596 0.8602 7.806 1.5723 11.697 0.539 2.945 2.7363 5.044 4.825 7.188 1.4265 1.465 5.3482 0.747 7.4772 4.946 1.15 2.268-2.8159 4.083-4.9425 4.088-4.2542 0.01-7.1359-4.111-7.9847-5.601" fill="#29274b"/></g><g fill="#f6827a"><path d="m98.816 327.78c-0.2324-0.112-0.5121-0.012-0.7301 0.125-0.5906 0.373-1.6586 2.266-0.2488 2.174 0.8227-0.054 1.9789-1.817 0.9789-2.299"/><path d="m102.16 325.62-0.18-0.021c-0.247-1e-3 -0.511 0.114-0.709 0.291-0.25 0.224-0.42 0.544-0.542 0.886-0.034 0.094-0.136 0.142-0.23 0.109-0.093-0.034-0.142-0.137-0.108-0.23 0.134-0.372 0.325-0.748 0.641-1.032 0.256-0.228 0.593-0.382 0.948-0.382l0.262 0.03c0.096 0.022 0.156 0.119 0.133 0.215-0.022 0.097-0.119 0.157-0.215 0.134"/><path d="m105.04 327.89c-0.186 0.043-0.682-0.094-0.93-0.593-0.183-0.368-0.309-0.77-0.314-1.181l0.058-0.257 0.03-0.025c0.215-0.215 0.648 0.292 0.724 0.45 0.219 0.456 0.425 1.196 0.432 1.606"/></g><g><path d="m102.89 328.48c-0.15-0.163-0.38-0.257-0.607-0.257-0.101 0-0.199 0.018-0.29 0.054l-0.181-0.077 0.077-0.181c0.127-0.05 0.26-0.074 0.394-0.074 0.301 1e-3 0.601 0.121 0.811 0.346l-7e-3 0.196-0.197-7e-3" fill="#27285d"/><path d="m105.22 332.54c-0.29 0.072-0.777 0.11-0.856-0.143 0-0.183 0.205-0.257 0.363-0.302 0.157-0.046 0.323-0.046 0.486-0.068s0.324-0.065 0.476-0.128l0.206-0.064c0.374-0.025 0.09 0.285 7e-3 0.373-0.155 0.163-0.468 0.278-0.682 0.332" fill="#29274b"/><path d="m101.07 333.21c-0.289 0.147-0.619 0.285-0.929 0.191-0.2179-0.065-0.4074-0.241-0.6351-0.233 0.0992 0.241 0.3469 0.395 0.6011 0.449 0.254 0.056 0.518 0.028 0.777-1e-3 0.338-0.037 1.139 0.056 1.15-0.412 0.013-0.543-0.702-0.127-0.964 6e-3" fill="#29274b"/><path d="m101.32 331.04c-0.163 0.311-0.512 0.417-0.811 0.418-0.259 0-0.5169-0.066-0.7434-0.192l-0.0539-0.189 0.189-0.054c0.1843 0.103 0.3963 0.157 0.6083 0.157 0.239 1e-3 0.482-0.095 0.563-0.265l0.187-0.062 0.061 0.187" fill="#27285d"/><path d="m100.78 330.42c-0.034-0.237-0.181-0.415-0.329-0.4-0.147 0.017-0.239 0.222-0.205 0.459 0.035 0.237 0.182 0.415 0.33 0.399 0.147-0.016 0.238-0.221 0.204-0.458" fill="#29274b"/><path d="m105.53 330.02c-0.115 0.263-0.346 0.464-0.623 0.541l-0.249 0.033c-0.2 0-0.398-0.061-0.562-0.179l-0.031-0.194 0.194-0.031c0.113 0.081 0.256 0.126 0.399 0.126l0.175-0.023c0.193-0.053 0.363-0.201 0.441-0.383l0.183-0.073 0.073 0.183" fill="#27285d"/><path d="m104.74 329.56c-0.034-0.236-0.181-0.415-0.329-0.399-0.147 0.016-0.239 0.222-0.205 0.459 0.035 0.236 0.182 0.415 0.33 0.398 0.147-0.015 0.239-0.22 0.204-0.458" fill="#29274b"/><path d="m300.1 111.69-0.482-6.346-5.171 0.165s-0.262 0.801-0.699 0.814c-0.369 0.012-0.871-0.764-1.372-0.749-1.088 0.035-2.294 0.073-2.777 0.089-0.969 0.03-10.375 0.33-10.375 0.33s-0.197 1.185 0.102 1.582c0.153 0.203 1.029 0.537 1.612 0.697 2.698 0.745 10.424 3.088 11.843 5.864 1.724 3.375 7.319-2.446 7.319-2.446" fill="#03a6ea"/></g><g fill="#0e88c2"><path d="m279.22 107.33c-0.133-0.503 3e-3 -1.336 3e-3 -1.336s9.406-0.3 10.375-0.33c0.483-0.016 1.689-0.054 2.777-0.089 0.501-0.015 1.003 0.761 1.372 0.749 0.437-0.013 0.699-0.814 0.699-0.814l5.171-0.165 0.274 1.326-20.671 0.659"/><path d="m288.88 109.51c-0.119-0.164-0.412 0.035-0.79 0.375-0.918 0.826-0.834 0.736-0.586 0.861 0.172 0.085 0.375 0.171 0.906-0.326 0.372-0.349 0.59-0.748 0.47-0.91"/><path d="m290.3 110.14c-0.119-0.163-0.411 0.035-0.789 0.376-0.918 0.826-0.835 0.736-0.587 0.86 0.173 0.085 0.377 0.172 0.906-0.323 0.373-0.351 0.59-0.753 0.47-0.913"/><path d="m291.61 110.88c-0.12-0.163-0.411 0.034-0.79 0.376-0.917 0.825-0.834 0.736-0.586 0.861 0.173 0.086 0.377 0.171 0.905-0.325 0.372-0.349 0.59-0.75 0.471-0.912"/></g><path d="m291.49 112.35 8.501-0.662 2.377 38.588c0.021 2.426-0.325 4.842-1.026 7.165l-3.112 10.314 6.782 53.393-24.187 8.518s1.221-72.133 10.665-117.32" fill="#2f2f62"/><path d="m340.73 104.04c0.367-0.676 0.051-2.216 0.051-2.216s-7.986-0.724-10.525 0.022c-0.662 0.194-1.764 0.862-2.802 1.567-0.175 0.117-0.469 0.802-0.638 0.921-0.314 0.22-0.493-0.126-0.76 0.072-0.693 0.515-1.179 0.917-1.187 0.967-0.569 4.051 0.413 5.646 0.413 5.646s5.176 2.323 6.39 0.548c2.856-4.176 7.996-5.575 9.058-7.527" fill="#03a6ea"/><g fill="#0e88c2"><path d="m340.93 103.17c-2.467-0.271-7.643-0.802-8.587-0.579-3.86 0.902-6.111 3.228-7.643 4.667 0.018-0.56 0.068-1.183 0.166-1.886 8e-3 -0.05 0.494-0.452 1.187-0.967 0.267-0.198 0.446 0.148 0.76-0.072 0.169-0.119 0.463-0.804 0.638-0.921 1.038-0.705 2.14-1.373 2.802-1.567 2.539-0.746 10.525-0.022 10.525-0.022s0.164 0.695 0.152 1.347"/><path d="m336.72 107.13c0.029-0.174-0.306-0.258-0.749-0.219-0.9 0.079-1.818 0.058-2.742-0.06-0.457-0.059-0.84 0.017-0.853 0.203-0.012 0.187 0.347 0.41 0.797 0.464 0.913 0.108 1.821 0.119 2.706 0.033 0.438-0.043 0.812-0.247 0.841-0.421"/><path d="m335.23 108.37c0.022-0.178-0.316-0.301-0.759-0.303-0.895-7e-3 -1.804-0.111-2.716-0.315-0.45-0.1-0.824-0.053-0.832 0.137-6e-3 0.192 0.352 0.455 0.795 0.549 0.903 0.192 1.8 0.285 2.685 0.284 0.435-1e-3 0.802-0.175 0.827-0.352"/><path d="m333.78 109.52c0.017-0.184-0.323-0.341-0.764-0.387-0.888-0.089-1.786-0.275-2.682-0.559-0.443-0.14-0.81-0.122-0.812 0.076-3e-3 0.199 0.352 0.495 0.789 0.63 0.888 0.272 1.778 0.447 2.655 0.526 0.435 0.039 0.795-0.106 0.814-0.286"/></g><g><path d="m302.99 221.5-1.749 1.331-20.415 6.834s-6e-3 -3.254 0.469-14.702l21.487-17.332 0.208 23.869" fill="#2f3052"/><path d="m312.46 218.06 20.615-107.3-7.8 0.257s-14.352 26.57-15.703 44.76c-0.428 5.76-1.984 11.388-4.668 16.501-11.062 21.073-18.715 55.1-18.715 55.1l26.271-9.318" fill="#2f3052"/><path d="m274.63 232.91c-0.429-0.134-1.86-0.733-3.846-3.193-1.781-2.207-4.142-7.883-5.809-5.365 0.311 3.061 0.308 6.693 0.308 6.693 0.369 1.834 2.706 3.942 4.412 4.979l5.625 2.559s2.708-1.289 2.847-1.327l-0.271-1.277c-1.252-0.848-2.345-1.894-3.266-3.069" fill="#f9b18a"/><path d="m273.06 232.81s-0.166-1e-3 -0.456-0.069c0.086 0.396 0.149 0.791 0.198 1.185 0.797 1.248 1.557 2.52 2.341 3.776 0.655-0.555 1.577-1.331 1.653-1.374l-3.504-9.247s-1.276-0.075-1.191 1.992 0.959 3.737 0.959 3.737" fill="#f9b18a"/><path d="m301.05 251.51s-11.063 1.639-14.182-0.663c-3.118-2.302-14.34-11.421-14.34-11.421l5.318-5.014s23.821 12.547 25.082 14.474c1.261 1.929-1.223 2.431-1.878 2.624" fill="#0994d3"/><path d="m318.68 278.53s-12.926 7.073-22.153-8.184c-9.229-15.258-17.228-45.804-17.228-45.804l34.126-7.032 5.908 43.793s4.326 14.944-0.653 17.227" fill="#03a6ea"/><path d="m249.12 258.32h-1.864c-1.039 1.587-1.643 3.484-1.643 5.522 0 2.489 0.901 4.767 2.394 6.527 0.247-0.575 0.487-1.149 0.717-1.715l1.782-8.964c-0.247-0.635-0.693-1.107-1.386-1.37" fill="#fbfdfc"/><path d="m250.5 259.69-1.782 8.964c1.49-3.675 2.526-7.058 1.782-8.964" fill="#fbfcfb"/><path d="m255.7 253.75c-0.35 0-0.696 0.018-1.036 0.052v4.519h-5.549c0.693 0.263 1.139 0.735 1.386 1.37 0.744 1.906-0.292 5.289-1.782 8.964-0.23 0.566-0.47 1.14-0.717 1.715 1.852 2.181 4.613 3.565 7.698 3.565 2.201 0 4.238-0.704 5.897-1.901 0.033-0.052 0.066-0.105 0.1-0.158 1.367-2.162 2.713-4.339 3.971-6.445 0.082-0.517 0.125-1.048 0.125-1.588 0-5.575-4.519-10.093-10.093-10.093" fill="#fcf9c5"/><path d="m265.67 265.43c-1.258 2.106-2.604 4.283-3.971 6.445-0.034 0.053-0.067 0.106-0.1 0.158 2.134-1.538 3.642-3.891 4.071-6.603" fill="#f9fafc"/><path d="m254.67 253.8c-3.103 0.317-5.789 2.038-7.413 4.519h7.413v-4.519" fill="#d3ebfa"/><path d="m264.14 259.02c-2.742-4.564-8.666-6.041-13.23-3.298-4.565 2.742-6.041 8.665-3.299 13.229 2.742 4.565 8.666 6.042 13.23 3.299 4.565-2.742 6.041-8.665 3.299-13.23zm-2.458 14.631c-5.338 3.207-12.264 1.48-15.471-3.858s-1.481-12.265 3.857-15.473c4.805-2.885 10.895-1.775 14.403 2.367l0.968-0.582 0.412 0.687 7.253-4.357 1.06 1.763-7.252 4.358 0.412 0.686-0.969 0.581c2.01 5.042 0.132 10.942-4.673 13.828" fill="#2c3185"/><path d="m286.92 245.33-1.545-2.571-18.894 11.351 1.545 2.572 18.894-11.352" fill="#2f74c3"/><path d="m288.46 247.9-1.544-2.571-18.894 11.352 1.545 2.571 18.893-11.352" fill="#2252ab"/><path d="m287.78 248.31-3.09-5.142 1.373-0.824 3.089 5.142-1.372 0.824" fill="#2c3287"/><path d="m253.82 268.31c0-0.813-0.659-1.473-1.473-1.473s-1.473 0.66-1.473 1.473c0 0.814 0.659 1.473 1.473 1.473s1.473-0.659 1.473-1.473" fill="#fff"/><path d="m318.85 277.95s3.669 0.768 3.345-10.642c-0.323-11.413-1.78-33.733-2.963-39.434-0.291-1.413-1.355-7.973-4.651-4.434-3.297 3.538-6.877 18.183-4.165 37.918 1.74 12.655 6.527 16.377 8.434 16.592" fill="#24b8ee"/><path d="m317 225.57s-2.705 10.894-5.86 12.637c-3.154 1.744-15.226 7.615-15.226 7.615l-2.352-7.262s19.734-15.74 21.872-15.965c2.14-0.227 1.645 2.284 1.566 2.975" fill="#24b8ee"/><path d="m295.73 245.93-7.315 3.215-2.977 0.613 1.214-2.83-2.598-1.304-2.822 0.693-3.753 1.186 0.767-2.726s0.245-0.835 1.058-1.551c0.813-0.718 5.086-3.827 5.086-3.827l1.943 0.623 4.381 1.707 3.139-1.869 1.877 6.07" fill="#f9b18a"/><path d="m312.79 288.65-0.409 1.974-5.717-3.965 0.085-2.586c1.181 0.22 2.327 0.604 3.391 1.138 1.293 0.854 2.207 2.072 2.65 3.439" fill="#f79072"/><path d="m303.11 285.3c-1.033 0.076-1.984 0.274-2.467 0.706-2.783 4.475 1.152 16.013 1.152 16.013l4.861 1.789 5.884-4.058-0.016-7.853c-4e-3 -2.095-1.101-4.056-2.953-5.28-1.969-0.989-4.212-1.483-6.461-1.317" fill="#f9b18a"/><path d="m303.11 285.3c-1.033 0.076-1.984 0.274-2.467 0.706-2.783 4.475 1.152 16.013 1.152 16.013l4.861 1.789 5.884-4.058-0.016-7.853c-4e-3 -2.095-1.101-4.056-2.953-5.28-1.969-0.989-4.212-1.483-6.461-1.317" fill="#f9b18a"/><path d="m306.4 291.75c0.195-0.203 0.519-0.207 0.794-0.149 0.745 0.16 2.553 1.693 1.075 2.131-0.862 0.256-2.711-1.111-1.869-1.982" fill="#f79072"/><path d="m300.54 293.24c0.068-0.443 0.025-0.904-0.125-1.327-0.033-0.092-0.075-0.188-0.156-0.241-0.138-0.092-0.337-0.018-0.435 0.116-0.098 0.135-0.117 0.31-0.125 0.476-0.018 0.347-0.089 1.201 0.207 1.464 0.374 0.334 0.58-0.143 0.634-0.488" fill="#f79072"/></g><g fill="#2f3052"><path d="m301.64 299.04c0.324-0.036 0.649-0.191 0.821-0.468-0.111-0.139-0.306-0.186-0.485-0.174-0.178 0.013-0.348 0.076-0.522 0.115-0.176 0.039-0.357 0.055-0.536 0.048l-0.235 0.013c-0.391 0.115 0.015 0.325 0.134 0.384 0.22 0.108 0.584 0.108 0.823 0.082"/><path d="m300.64 296.32c0.123 0.129 0.31 0.208 0.491 0.208l0.052-2e-3c0.195-0.016 0.392-0.132 0.501-0.295 0.067-0.099 0.202-0.125 0.302-0.057 0.099 0.067 0.125 0.202 0.058 0.301-0.188 0.275-0.493 0.454-0.825 0.483l-0.088 4e-3c-0.301 0-0.595-0.123-0.805-0.342l7e-3 -0.308 0.307 8e-3"/><path d="m306.14 298.16c0.352 0.041 0.74 0.058 1.024-0.155 0.197-0.15 0.325-0.4 0.56-0.478-0.011 0.283-0.206 0.535-0.445 0.686-0.239 0.152-0.52 0.224-0.795 0.292-0.36 0.09-1.145 0.487-1.332 0.014-0.218-0.552 0.67-0.396 0.988-0.359"/><path d="m305.32 295.76c0.071 0.067 0.176 0.102 0.307 0.103 0.098 0 0.205-0.022 0.301-0.057 0.205-0.076 0.393-0.207 0.536-0.372 0.078-0.091 0.215-0.102 0.306-0.024 0.091 0.079 0.102 0.216 0.023 0.306-0.191 0.223-0.439 0.395-0.714 0.497-0.141 0.052-0.294 0.083-0.452 0.084-0.207 0-0.43-0.058-0.604-0.219l-0.01-0.307 0.307-0.011"/><path d="m301.66 292.97c0.197-0.463 0.662-0.771 1.163-0.774l0.029 1e-3c0.12 3e-3 0.215 0.102 0.212 0.222s-0.102 0.215-0.222 0.212h-0.019c-0.315-3e-3 -0.644 0.214-0.762 0.506-0.046 0.111-0.173 0.163-0.284 0.117-0.11-0.046-0.163-0.173-0.117-0.284"/></g><g><path d="m301.94 288.65c0.232-0.154 0.501-0.219 0.765-0.219 0.215 0 0.429 0.043 0.627 0.121 0.434 0.172 0.774 0.487 1.053 0.819 0.077 0.092 0.065 0.229-0.027 0.306s-0.229 0.065-0.306-0.027c-0.253-0.303-0.545-0.562-0.88-0.694-0.148-0.059-0.31-0.091-0.467-0.091-0.193 0-0.376 0.048-0.525 0.147-0.1 0.066-0.235 0.039-0.301-0.061s-0.039-0.235 0.061-0.301" fill="#f79072"/><path d="m315.08 277.6-2.284 11.056c-0.443-1.367-1.357-2.585-2.65-3.439-1.064-0.534-2.21-0.918-3.391-1.138l0.189-5.752 8.136-0.727" fill="#f9b18a"/><path d="m311.38 295.36c-0.272 1.333 0.041 4.362-1.309 4.204-0.985-0.115-4.343-0.098-5.47-0.046-2.687 0.123-7.429 1.395-7.241 5.484 0.095 2.045 2.159 3.716 3.438 4.182 1.257 0.458 2.648 0.369 3.889-0.129 2.911-1.171 6.731-3.634 8.31-3.391 2.657 0.408 5.213-1.257 5.073-3.492-0.15-2.389-1.563-5.926-2.842-8.154-0.741-1.29-1.704-2.434-2.846-3.388l-1.002 4.73" fill="#2f3052"/><path d="m314.09 294.93c-0.575 0.557-1.7 0.508-2.513-0.108-0.815-0.616-1.009-1.566-0.434-2.123 0.574-0.557 1.7-0.508 2.514 0.108 0.813 0.617 1.008 1.568 0.433 2.123" fill="#f9b18a"/><path d="m52.57 112.38s-1.884-1.482-1.5386-3.369c0.3453-1.888 0.8339-6.308 0.8339-6.308h1.9371l-0.0597 4.123c0.0058 0.27 4.1543-4.123 4.857-4.123h10.251s0.6809 2.78-5.3387 3.675c-6.0191 0.893-10.942 6.002-10.942 6.002" fill="#1b3b5d"/><path d="m57.012 114.26 1.3899-3.618c0.3418-0.993 1.0082-1.836 1.8929-2.402 0.9778-0.626 2.5082-1.499 4.7852-2.173-2.7852-2.378-7.2176 0.106-9.7535 1.862-1.2356 0.856-2.1102 2.132-2.4786 3.59l-0.5804 2.741h4.7445" fill="#f79072"/><path d="m41.191 207.75s1.1481-6.285 8.5121-42.479c-5.9613-18.863 3.1449-53.752 3.1449-53.752l4.8758 0.36 4.8328 95.871h-21.366" fill="#f79072"/><path d="m33.043 112.38s-1.8836-1.482-1.5383-3.369c0.3449-1.888 0.8344-6.308 0.8344-6.308h1.9371l-0.0598 4.123c0.0055 0.27 4.1543-4.123 4.857-4.123h10.25s0.6813 2.78-5.3379 3.675c-6.0191 0.893-10.942 6.002-10.942 6.002" fill="#1b3b5d"/></g><g fill="#f9b18a"><path d="m37.486 114.26 1.3891-3.618c0.3426-0.993 1.0086-1.836 1.893-2.402 0.9777-0.626 2.5086-1.499 4.7859-2.173-2.7859-2.378-7.2184 0.106-9.7539 1.862-1.2359 0.856-2.1105 2.132-2.4781 3.59l-0.5805 7.149 4.7445-4.408"/><path d="m34.494 207.75s-4.9402-8.654 2.4239-44.848c-8.243-20.664-3.5965-51.383-3.5965-51.383l4.7054 0.86 17.833 95.371h-21.366"/><path d="m73.348 226.77c0.0797 0.709 0.0125 1.154-0.2246 2.622-0.3078 1.908-0.2269 4.897-2.1761 3.407-1.8418-2.311-2.0555-4.768-2.0555-4.768-0.375-1.354 0.4551-3.239 1.2293-4.261l1.3402-2.919s2.3133 2.692 1.8867 5.919"/></g><g><path d="m66.697 270.25c-0.4399-2.799-2.4489-5.294-2.2969-8.123 0.2051-3.816 4.1527-6.35 5.3563-9.977 1.3097-3.945-1.3086-8.605-5.2477-9.934s-8.5813 0.506-10.93 3.935c-1.4113 2.061-2.0652 4.566-2.2515 7.056-0.2227 2.985 0.1945 5.994 0.9722 8.885 0.4453 1.653 1.0254 3.307 2.068 4.666 1.6062 2.092 4.107 3.248 6.3023 4.711 1.0911 0.727 2.1465 1.593 2.9399 2.647 0.6094 0.811 0.9781 2.76 1.7453 3.131 1.1066-1.955 1.693-4.767 1.3426-6.997" fill="#2f3052"/><path d="m58.06 285.72c2.2074-0.676 4.1672-2.034 5.7738-3.692 0.4637-0.478 0.9027-0.986 1.2527-1.553 0.9313-1.508 1.175-3.331 1.3414-5.095 0.1211-1.279 0.1957-2.644-0.4257-3.767-0.2329-0.421-0.5665-0.797-0.9942-1.016-0.5613-0.29-1.2238-0.289-1.8551-0.252-1.6062 0.091-3.2566 0.361-4.7957-0.11-1.3496-0.412-2.4625-1.349-3.6175-2.161-1.8836-1.322-4.0575-2.377-6.3586-2.417-0.6571-0.012-1.334 0.066-1.9145 0.373-0.6785 0.36-1.1605 0.995-1.6148 1.615-0.5621 0.767-1.1227 1.551-1.4528 2.443-0.4343 1.173-0.4425 2.455-0.4441 3.706-0.0016 1.016 4e-4 2.051 0.2945 3.023 0.2211 0.734 0.6016 1.409 1.0156 2.052 2.1977 3.419 5.6629 6.867 9.8895 7.266 1.3117 0.123 2.6477-0.03 3.9055-0.415" fill="#2f3052"/><path d="m42.099 224.09c-2.2023-6.674-7.1164-12.176-9.4297-18.812-1.0027-2.876-1.4937-5.906-1.8062-8.936-0.991-9.622-0.2063-19.425 2.3043-28.767 0.1078-0.401 0.2258-0.815 0.4949-1.132 0.3633-0.427 0.9352-0.602 1.4781-0.743 4.7403-1.23 9.7586-1.377 14.563-0.426 3.8989 0.772 7.7051 2.26 11.679 2.244 0.5375 6.685 1.075 13.37 1.6121 20.054 0.4715 5.856 0.9399 11.778 0.0227 17.579-0.9426 5.96-3.3391 11.77-2.9832 17.792 0.1762 2.984 1.0262 5.882 1.5031 8.831 1.3207 8.171-0.3297 16.789-4.5762 23.894-0.6668 1.115-1.9781 2.34-3.0652 1.628-0.4352-0.285-0.6504-0.806-1.0211-1.17-1.0605-1.045-2.8766-0.455-4.0601 0.447-1.1836 0.903-2.3008 2.114-3.7852 2.23-6.8172 0.525-3.4367-11.313-2.8168-14.364 1.359-6.688 2.0645-13.749-0.1137-20.349" fill="#f9e004"/><path d="m59.996 250.12 8.2519-15.543-9.0925 0.438-1.1496 18.77 1.9902-3.665" fill="#f9b18a"/><path d="m39.054 253.89c-9.9824-1.165-5.2672-26.917-3.1226-37.491 0.5273-2.602 3.189-4.19 5.7207-3.391 8.6855 2.739 21.375 14.114 21.375 14.114l-2.0117 2.532-16.857-3.935s6.4676 29.521-5.1051 28.171" fill="#f9b18a"/><path d="m59.025 235.7-3.2594-20.176c-0.0949-0.584 0.3571-1.114 0.9489-1.114h12.905c0.4723 0 0.875 0.344 0.9489 0.811l3.2023 20.175c0.0922 0.584-0.3586 1.112-0.9492 1.112h-12.848c-0.471 0-0.8734-0.342-0.9484-0.808" fill="#fff"/><path d="m54.893 263.18-0.9594-5.041c-0.4223-2.216-2.9418-3.316-4.8547-2.117l-3.3617 2.108 6.0023 13.568 3.1735-8.518" fill="#f89f6c"/><path d="m51.674 274.99c0.6895 0.28 1.5813-0.185 1.9914-1.039 0.4106-0.853 0.184-1.772-0.5054-2.053-0.6895-0.28-1.5813 0.186-1.9914 1.039-0.4106 0.854-0.1844 1.773 0.5054 2.053" fill="#f9b18a"/><path d="m56.681 262.3c0.8671-0.32 1.7175-0.499 2.282-0.296 4.0586 2.941 5.5246 14.689 5.5246 14.689l-3.2145 3.414-6.4-1.406-3.1539-6.997c-0.8418-1.868-0.7445-4.024 0.2625-5.81 1.1946-1.618 2.8114-2.899 4.6993-3.594" fill="#f9b18a"/><path d="m55.273 267.6c-0.2813-0.136-0.62-0.016-0.884 0.151-0.7153 0.452-2.0086 2.744-0.3012 2.633 0.9965-0.065 2.3965-2.199 1.1852-2.784" fill="#f6827a"/><path d="m63.032 273.36c-0.3515 0.088-0.75 0.051-1.0359-0.172 0.0625-0.188 0.2481-0.311 0.4391-0.367 0.1902-0.055 0.3918-0.056 0.5882-0.082 0.1985-0.025 0.3926-0.078 0.5774-0.154l0.2488-0.078c0.452-0.03 0.1094 0.345 0.0082 0.452-0.1871 0.197-0.5664 0.337-0.8258 0.401" fill="#141212"/><path d="m63.398 270.31c-0.1386 0.318-0.4187 0.562-0.7535 0.655-0.0988 0.027-0.2008 0.041-0.3023 0.041-0.2414-1e-3 -0.4817-0.074-0.6801-0.217l-0.0383-0.235 0.2352-0.038c0.1371 0.099 0.3109 0.153 0.4832 0.153l0.2129-0.029c0.2324-0.063 0.439-0.243 0.5343-0.464l0.2215-0.087 0.0871 0.221" fill="#27285d"/><path d="m58 274.17c-0.3508 0.179-0.7496 0.345-1.1262 0.231-0.2636-0.079-0.4925-0.292-0.7679-0.281 0.1203 0.291 0.4199 0.477 0.7277 0.543 0.3078 0.067 0.6277 0.033 0.9406-1e-3 0.4098-0.045 1.3797 0.067 1.393-0.499 0.0148-0.658-0.8496-0.154-1.1672 7e-3" fill="#141212"/><path d="m58.307 271.54c-0.1972 0.376-0.6195 0.505-0.9824 0.506-0.3137 0-0.6258-0.081-0.9004-0.234l-0.0648-0.229 0.2289-0.065c0.2234 0.124 0.4809 0.192 0.7363 0.191 0.2899 2e-3 0.584-0.115 0.6821-0.321l0.2261-0.074 0.0742 0.226" fill="#27285d"/><path d="m60.206 268.44c-0.1825-0.197-0.4614-0.311-0.7364-0.31-0.1211 0-0.2402 0.021-0.3504 0.065l-0.2187-0.094 0.0941-0.219c0.1524-0.06 0.3141-0.089 0.475-0.089 0.3649 1e-3 0.7289 0.146 0.9832 0.418l-0.0089 0.238-0.2379-9e-3" fill="#27285d"/><path d="m59.318 264.98-0.2176-0.025c-0.2988-1e-3 -0.6191 0.138-0.8582 0.353-0.3027 0.271-0.509 0.657-0.6574 1.072-0.0406 0.113-0.1649 0.172-0.2778 0.131-0.1128-0.041-0.1714-0.165-0.1312-0.278 0.1625-0.451 0.3945-0.905 0.7766-1.248 0.3101-0.277 0.7183-0.463 1.148-0.464 0.1055 0 0.2117 0.011 0.3172 0.036 0.1168 0.028 0.1891 0.145 0.1613 0.261-0.0273 0.117-0.1445 0.189-0.2609 0.162" fill="#f6827a"/><path d="m62.337 267.49c-0.2262 0.051-0.5172-0.239-0.6551-0.486-0.2422-0.436-0.3742-0.932-0.38-1.431-0.0016-0.108 5e-3 -0.224 0.0691-0.311l0.0367-0.03c0.0797 0.142 0.1664 0.306 0.2582 0.497 0.2653 0.553 0.5586 1.374 0.6711 1.761" fill="#f6827a"/><path d="m57.023 285.58c-4.9371 1.719-14.946-3.518-17.346-7.633-0.8594-1.473-1.3266-3.208-1.2786-4.904l-0.0144-0.049c-0.4297-2.046 0.0566-4.173-0.1211-6.255-0.0168-0.194-0.0422-0.396-0.1492-0.56-0.2633-0.404-0.8524-0.376-1.3305-0.313-2.4305 0.322-5.0336 0.334-7.1754-0.859-2.4855-1.386-3.9109-4.195-4.3406-7.008-0.6332-4.145 0.7074-8.58 3.6433-11.573 2.9368-2.993 7.4286-4.421 11.525-3.524 4.0957 0.899 7.623 4.154 8.7039 8.205 0.1183 0.445 0.2129 0.906 0.4523 1.298 0.259 0.426 0.6656 0.736 1.0238 1.082 1.502 1.453 2.1676 3.603 2.2379 5.692 0.0688 2.065-0.1769 4.86-0.8761 6.801-0.6114 1.698-2.3575 2.614-3.2551 4.129-0.8461 1.429-0.7735 3.349 0.1785 4.709 0.8277 1.182 11.769 9.492 8.123 10.762" fill="#2f3052"/><path d="m63.294 278.55c-0.3332-3.554-10.223-3.846-10.223-3.846l-0.5152 4.812 5.766 3.173 4.564-2.746s0.4602-0.8 0.4082-1.393" fill="#2f3052"/><path d="m236.69 251.55h-2.36v35.953l2.36-1.304v-34.649" fill="#11495a"/><path d="m239.27 242.18-3.808 2.628-3.808-2.628v10.405h7.616v-10.405" fill="#107f92"/></g></g></svg>
