<?xml version="1.0" encoding="UTF-8"?>
<svg width="548.55" height="494.16" version="1.1" viewBox="0 0 548.55 494.16" xml:space="preserve" xmlns="http://www.w3.org/2000/svg"><defs><clipPath id="clipPath50"><path d="m2993.2 1610.5c259.86 88.17 487.1 248.08 655.86 449.38-31.59 33.6-62.21 65.46-68.14 73.4 30.74-14.99 60.74-30.52 91.31-45.04 65.22 81.93 120.9 170.24 165.4 263-33.58 26.69-65.64 56.31-81.95 86.85 11.88 0.01 62.15-20.48 105.7-34.5 26.69 62.52 48.3 126.84 64.41 192.4-32.22 3.15-64.15 7.31-93.06 15.23 7.58 2.32 59.2 16.56 103.15 29.39 22.13 108.84 27.05 222.43-11.08 326.62-1.24 3.4-2.54 6.79-3.88 10.18-95.68-48.41-186.85-104.26-272.46-166.54-1.06-56.13-7.83-114.16 8.65-167.15-14.61 46.98-29.23 93.96-43.84 140.94-7.7-5.88-15.39-11.79-22.99-17.76-79.67-62.55-153.97-130.83-222.15-203.89 10.45-24.64 20.58-44.47 28.35-47.12-17.9 6.11-35.46 13.03-52.64 20.67-74.9-83.34-141.91-172.63-199.83-266.64-121.52-197.25-242.23-401.63-190.65-635.82 2.06-9.35 5.63-19.97 14.11-24.66 1.17-0.64 2.41-1.18 3.75-1.58 7.18-2.12 14.92 0.25 21.98 2.64z"/></clipPath></defs><g transform="matrix(1.3333 0 0 -1.3333 0 494.16)"><path d="m338.1 218.1c1.448 2 3.313 4.183 5.902 4.323 4.901 0.267 6.013-6.116 5.363-10.593 3.199 8.619 6.778 17.746 14.582 23.418 1.013 0.736 2.148 1.425 3.423 1.545 2.512 0.235 4.635-1.912 5.071-4.184 0.435-2.272-0.365-4.597-1.155-6.811 8.399 10.76 21.957 18.029 36.177 19.397 1.128 0.108 2.405 0.138 3.213-0.574 0.888-0.783 0.813-2.101 0.603-3.232-1.335-7.204-5.657-13.963-11.886-18.59 3.973 2.779 9.824-1.993 9.022-6.488-0.8-4.496-5.401-7.597-9.883-9.597-4.483-2-9.453-3.574-12.678-7.076 1.913 2.184 6.235 0.979 7.162-1.643 0.928-2.622-0.824-5.588-3.323-7.196-2.498-1.608-5.579-2.169-8.557-2.691-4.188-0.734-8.376-1.47-12.564-2.204 0.348-1.316 1.269-2.486 2.515-3.197-1.085-5.133-7.407-7.621-12.836-9.229-13.904-4.121-29.794-9.292-44.303-6.761-0.611 17.201 14.092 37.492 24.152 51.383" fill="#03a6ea"/><g fill="#f1f8f7"><path d="m388.75 215.84c0.896 0.514 2.204 1.406 2.681 0.361 0.7-1.532-4.443-3.405-4.761-1.763-0.128 0.663 1.487 0.992 2.08 1.402"/><path d="m358.37 181.54c0.896 0.515 2.204 1.406 2.681 0.361 0.7-1.531-4.444-3.404-4.761-1.762-0.128 0.662 1.487 0.991 2.08 1.401"/><path d="m372.17 191.5c1.044-0.039 2.656 0.021 2.396-1.1-0.382-1.645-5.71-0.518-4.949 1.018 0.306 0.621 1.818 0.051 2.553 0.082"/><path d="m343.28 193.98c1.045-0.039 2.656 0.02 2.395-1.101-0.382-1.644-5.71-0.516-4.949 1.02 0.308 0.62 1.819 0.05 2.554 0.081"/><path d="m365.89 217.86c-0.109-0.958-0.147-2.439-1.35-2.176-1.764 0.386-0.198 5.254 1.425 4.522 0.654-0.295-0.062-1.67-0.075-2.346"/><path d="m333.13 200.15c-0.108-0.958-0.147-2.439-1.35-2.176-1.764 0.386-0.198 5.253 1.425 4.522 0.655-0.295-0.062-1.671-0.075-2.346"/><path d="m393.63 228.95c-0.816-0.616-1.989-1.655-2.613-0.679-0.915 1.43 3.933 3.901 4.481 2.315 0.222-0.64-1.336-1.159-1.868-1.636"/><path d="m379.22 202.94c-1.042 0.062-2.653 0.038-2.364 1.154 0.425 1.636 5.719 0.391 4.918-1.129-0.322-0.613-1.819-0.01-2.554-0.025"/><path d="m394.23 211.34c-0.817-0.617-1.989-1.655-2.613-0.679-0.915 1.429 3.931 3.9 4.481 2.315 0.222-0.64-1.336-1.159-1.868-1.636"/><path d="m349.08 205.98c-0.072-0.96-0.052-2.44-1.266-2.217-1.779 0.328-0.4 5.24 1.251 4.562 0.666-0.274 3e-3 -1.67 0.015-2.345"/><path d="m380.41 223.98c-0.072-0.96-0.053-2.441-1.266-2.217-1.78 0.328-0.401 5.239 1.251 4.562 0.666-0.274 2e-3 -1.67 0.015-2.345"/><path d="m330.51 181.83c-0.072-0.96-0.054-2.44-1.266-2.216-1.781 0.328-0.401 5.24 1.251 4.561 0.666-0.273 1e-3 -1.67 0.015-2.345"/><path d="m345.04 178.21c1.046 0.044 2.649 0.233 2.495-0.903-0.225-1.666-5.65-0.971-5.036 0.618 0.248 0.641 1.811 0.195 2.541 0.285"/><path d="m362.04 195.97c0.698 0.73 1.671 1.928 2.464 1.065 1.163-1.267-3.189-4.431-4.018-2.956-0.335 0.595 1.114 1.341 1.554 1.891"/></g><path d="m387.41 222.88c-26.807-24.078-55.994-45.917-87.064-65.144" fill="none" stroke="#1b4063" stroke-miterlimit="10" stroke-width="1.0025"/><g transform="scale(.1)"><g clip-path="url(#clipPath50)"><path d="m3920.9 2977.4c-95.68-48.41-186.85-104.26-272.46-166.54-1.06-56.13-7.83-114.16 8.65-167.15-14.61 46.98-29.23 93.96-43.84 140.94-7.7-5.88-15.39-11.79-22.99-17.76-79.67-62.55-153.97-130.83-222.15-203.89 10.45-24.64 20.58-44.47 28.35-47.12-17.9 6.11-35.46 13.03-52.64 20.67-74.9-83.34-141.91-172.63-199.83-266.64-121.52-197.25-242.23-401.63-190.65-635.82 2.06-9.35 5.63-19.97 14.11-24.66 323.4 436.08 708.1 897.49 957.33 1357.8-1.24 3.4-2.54 6.79-3.88 10.18" fill="#382e91"/><path d="m2967.5 1609.5c1.17-0.64 2.41-1.18 3.75-1.58 7.18-2.12 14.92 0.25 21.98 2.64 259.86 88.17 487.1 248.08 655.86 449.38-31.6 33.6-62.21 65.46-68.15 73.4 30.76-14.99 60.75-30.52 91.32-45.04 65.22 81.93 120.9 170.24 165.4 263-33.58 26.69-65.64 56.31-81.95 86.85 11.88 0.01 62.15-20.48 105.7-34.5 26.69 62.52 48.3 126.84 64.41 192.4-32.22 3.15-64.15 7.31-93.06 15.23 7.58 2.32 59.2 16.56 103.15 29.39 22.13 108.84 27.05 222.43-11.08 326.62-249.23-460.3-633.93-921.71-957.33-1357.8" fill="#262349"/><g fill="none" stroke="#785db4" stroke-miterlimit="10" stroke-width="11.001"><path d="m3927.2 2977.3c-5.77-29.04-20.62-55.82-35.59-81.96-199.15-347.84-448.63-669.04-697.27-989.02-92.37-118.87-184.75-237.75-277.13-356.63"/><path d="m3560.7 2383.4c81.85-55.77 176.15-96.14 275.37-117.88"/><path d="m3468.8 2268.3c78.51-68.4 180.62-113.7 287.86-127.73"/><path d="m3609.8 2459c-14.07 31.64-15.85 66.58-16.87 100.74-3.08 104.26-0.65 208.67 7.29 312.72"/><path d="m3573 2410.6c-54.61 142.89-52.12 298.12-47.03 449.45"/><path d="m3809.1 2759.6c85.58 31.27 160.74 86.03 213.28 155.38"/><path d="m3771.1 2699c81.18 34.59 171.71 83.83 245.48 130.32"/><path d="m3382.3 2148.1c-59.91 29.94-104.12 81.58-133.99 137.79-29.86 56.21-46.71 117.34-63.26 177.99"/><path d="m3349.9 2107c-107.64 75.44-181.36 190.34-200.96 313.22"/><path d="m3287.7 2032c38.87-48.15 92.48-85.25 150.88-112.14 58.39-26.9 121.6-44.01 185.42-56.93"/><path d="m3217.4 1938.6c-63.1 31.3-112.56 83.01-145.1 141.61-32.53 58.59-48.89 123.88-55.36 189.37"/></g></g></g><path d="m273.63 295.58c18.571 14.164 45.252 11.024 59.996-7.27s12.146-45.033-5.639-60.172zm75.591 5.298c-21.957 27.243-61.842 31.529-89.085 9.571l-14.68-11.831 79.515-98.656 14.679 11.831c27.243 21.958 31.528 61.842 9.571 89.085" fill="#f9e004"/><g fill="#f03ca2"><path d="m251.06 297.14-0.603 0.748-2.672-2.154 0.602-0.748 2.673 2.154"/><path d="m253.3 294.36-0.602 0.747-2.672-2.154 0.601-0.747 2.673 2.154"/><path d="m255.55 291.56-0.603 0.747-2.671-2.154 0.601-0.747 2.673 2.154"/><path d="m257.8 288.78-0.601 0.747-2.673-2.154 0.601-0.747 2.673 2.154"/><path d="m260.05 285.98-0.602 0.747-2.672-2.153 0.601-0.748 2.673 2.154"/><path d="m262.3 283.19-0.603 0.747-2.671-2.154 0.601-0.747 2.673 2.154"/><path d="m264.56 280.39-0.603 0.747-2.672-2.154 0.602-0.747 2.673 2.154"/><path d="m266.8 277.61-0.601 0.746-2.673-2.154 0.601-0.747 2.673 2.155"/><path d="m269.06 274.81-0.603 0.747-2.671-2.154 0.601-0.747 2.673 2.154"/><path d="m271.3 272.03-0.601 0.747-2.673-2.154 0.602-0.747 2.672 2.154"/><path d="m273.55 269.23-0.602 0.747-2.672-2.154 0.601-0.747 2.673 2.154"/><path d="m275.8 266.45-0.601 0.747-2.673-2.155 0.602-0.747 2.672 2.155"/><path d="m278.05 263.65-0.601 0.747-2.673-2.154 0.602-0.747 2.672 2.154"/><path d="m280.3 260.86-0.602 0.747-2.672-2.154 0.602-0.747 2.672 2.154"/><path d="m282.56 258.06-0.602 0.747-2.672-2.155 0.601-0.747 2.673 2.155"/><path d="m284.8 255.28-0.601 0.747-2.673-2.154 0.602-0.747 2.672 2.154"/><path d="m287.06 252.48-0.602 0.748-2.672-2.154 0.602-0.748 2.672 2.154"/><path d="m289.31 249.68-0.602 0.747-2.673-2.154 0.603-0.747 2.672 2.154"/><path d="m291.55 246.9-0.602 0.747-2.673-2.153 0.602-0.747 2.673 2.153"/><path d="m293.81 244.1-0.602 0.748-2.672-2.155 0.602-0.747 2.672 2.154"/><path d="m296.05 241.32-0.602 0.747-2.673-2.154 0.602-0.747 2.673 2.154"/><path d="m298.3 238.52-0.603 0.747-2.672-2.154 0.602-0.747 2.673 2.154"/><path d="m300.55 235.74-0.602 0.747-2.673-2.154 0.602-0.747 2.673 2.154"/><path d="m302.8 232.94-0.602 0.747-2.673-2.153 0.602-0.747 2.673 2.153"/><path d="m305.06 230.15-0.603 0.747-2.672-2.154 0.602-0.747 2.673 2.154"/><path d="m307.31 227.35-0.603 0.747-2.672-2.154 0.602-0.747 2.673 2.154"/><path d="m309.55 224.57-0.602 0.747-2.673-2.153 0.602-0.747 2.673 2.153"/><path d="m311.81 221.77-0.603 0.747-2.672-2.154 0.602-0.747 2.673 2.154"/><path d="m314.06 218.97-0.603 0.747-2.673-2.153 0.603-0.747 2.673 2.153"/><path d="m316.31 216.18-0.603 0.747-2.673-2.154 0.603-0.747 2.673 2.154"/><path d="m318.57 213.38-0.602 0.747-2.673-2.153 0.603-0.747 2.672 2.153"/><path d="m320.81 210.6-0.603 0.747-2.673-2.154 0.603-0.747 2.673 2.154"/><path d="m323.06 207.8-0.603 0.747-2.673-2.154 0.603-0.747 2.673 2.154"/><path d="m325.32 205-0.603 0.747-2.673-2.154 0.603-0.747 2.673 2.154"/><path d="m347.33 298.83-0.515 0.639 2.145 1.729 0.516-0.639-2.146-1.729"/><path d="m340.22 306.34-0.619 0.54 1.812 2.076 0.62-0.541-1.813-2.075"/><path d="m331.9 312.5-0.703 0.425 1.424 2.359 0.703-0.425-1.424-2.359"/><path d="m322.65 317.12-0.766 0.295 0.993 2.571 0.767-0.296-0.994-2.57"/><path d="m312.73 320.06-0.806 0.159 0.531 2.704 0.807-0.159-0.532-2.704"/><path d="m302.45 321.24-0.821 0.016 0.054 2.755 0.822-0.016-0.055-2.755"/><path d="m292.13 320.61-0.812-0.126-0.425 2.722 0.812 0.127 0.425-2.723"/><path d="m282.07 318.2-0.778-0.266-0.891 2.607 0.778 0.266 0.891-2.607"/><path d="m272.58 314.08-0.719-0.396-1.331 2.413 0.719 0.397 1.331-2.414"/><path d="m263.95 308.38-0.64-0.516-1.73 2.146 0.641 0.515 1.729-2.145"/><path d="m340.16 213.82-0.639-0.516-1.73 2.146 0.64 0.515 1.729-2.145"/><path d="m347.91 221.37-0.541-0.62-2.075 1.813 0.54 0.619 2.076-1.812"/><path d="m354.24 230.16-0.425-0.703-2.359 1.424 0.425 0.704 2.359-1.425"/><path d="m358.94 239.91-0.296-0.766-2.57 0.993 0.295 0.766 2.571-0.993"/><path d="m361.88 250.33-0.159-0.807-2.703 0.532 0.158 0.806 2.704-0.531"/><path d="m362.97 261.1-0.016-0.822-2.755 0.055 0.016 0.821 2.755-0.054"/><path d="m362.16 271.89 0.127-0.812-2.722-0.425-0.127 0.812 2.722 0.425"/><path d="m359.5 282.38 0.266-0.778-2.607-0.891-0.266 0.778 2.607 0.891"/><path d="m355.06 292.25 0.396-0.719-2.413-1.331-0.396 0.72 2.413 1.33"/><path d="m326.55 200.74-79.761 98.962-1.337-1.077 79.762-98.962 1.336 1.077"/></g><path d="m76.106 152.05c0.0671 2.387-3.8235 21.956 7.0261 31.367 8.611 7.466 4.0485 11.05-0.8226 12.534-4.8711 1.483-10.133 0.712-8.7293 6.959 4.6254 20.566-5.0832 39.214-13.778 27.809-4.6996-6.167-11.455 0.487-10.407 5.718 2.2231 11.096-1.3105 19.597-8.2031 14.737-6.7793-4.78-12.254-4.755-13.004 0.183-0.7461 4.936 2.8004 14.117-6.8364 14.002-3.7937-0.045-9.4605-7.763-8.3492-15.541 0.634-4.431 6.3516-17.462-4.4285-13.867-11.112 3.7-9.902-5.767-4.9055-9.837 1.859-1.515 17.988-16.898 10.655-17.44-8.6574-0.637-8.6801-8.183 1.0922-13.437 4.4398-2.382 15.651-4.628 13.31-8.283-2.3422-3.655-3.8344-16.166 3.8835-15.914 21.902 0.713 43.639-14.031 43.495-18.99" fill="#03a6ea"/><g fill="none" stroke="#d5dcea" stroke-miterlimit="10" stroke-width="1.1412"><path d="m18.684 258.99s1.9742-30.988 23.035-60.747c21.71-30.667 36.682-38.051 37.855-62.075"/><path d="m39.803 241.09s-10.15-14.195-8.6176-26.355"/><path d="m6.5199 230.25s16.186-5.455 26.041-18.054"/><path d="m64.03 224.29s0.0551-8.341-13.741-36.829"/><path d="m11.743 203.17s26.169-4.045 31.734-7.225"/><path d="m31.269 179.73s21.686-0.785 32.341-9.441"/></g><g><path d="m14.43 350.13 2.4633-15.129 7.9617 3.892z" fill="#eeca99"/><path d="m15.241 345.15 2.6188 1.28-3.4289 3.697z" fill="#ec047b"/><path d="m101.48 177.24-4.086-1.997c-1.0703-0.524-2.3617-0.08-2.8847 0.99l-77.612 158.77 7.9617 3.892 77.612-158.77c0.523-1.07 0.08-2.361-0.991-2.884" fill="#ec047b"/><path d="m100.45 170.81-2.6542-1.297-80.9 165.49 2.6539 1.297 80.9-165.49" fill="#f03ca2"/><path d="m105.76 173.4-2.654-1.297-80.899 165.49 2.6539 1.297 80.9-165.49" fill="#f03ca2"/><path d="m240.84 370.62-7.481-13.378 8.655-1.905z" fill="#eeca99"/><path d="m238.38 366.22 2.847-0.627-0.386 5.027z" fill="#ec047b"/><path d="m201.47 181.1-4.443 0.978c-1.163 0.255-1.899 1.406-1.642 2.569l37.976 172.59 8.655-1.905-37.977-172.59c-0.255-1.163-1.406-1.9-2.569-1.643" fill="#ec047b"/><path d="m196.66 176.7-2.884 0.634 39.585 179.9 2.885-0.635-39.586-179.9" fill="#f03ca2"/><path d="m202.43 175.43-2.885 0.635 39.585 179.9 2.885-0.635-39.585-179.9" fill="#f03ca2"/></g><path d="m247.01 280.15c8.125 29.233 23.579 56.399 44.555 78.322" fill="none" stroke="#382e91" stroke-miterlimit="10" stroke-width=".7043"/><g fill="#382e91"><path d="m289.25 349.64c0.854 0.174 1.74 0.302 2.591 0.118 0.852-0.183 1.67-0.735 1.954-1.558 0.357-1.029-0.224-2.202-1.108-2.837-0.883-0.636-1.999-0.843-3.081-0.961-1.276-0.139-8.507-0.479-8.898 1.332-0.348 1.62 7.353 3.663 8.542 3.906"/><path d="m285.21 342.25c0.869 0.05 1.765 0.05 2.581-0.253 0.818-0.303 1.548-0.966 1.713-1.821 0.205-1.069-0.537-2.147-1.502-2.65-0.965-0.504-2.099-0.549-3.187-0.511-1.281 0.044-8.488 0.738-8.615 2.585-0.116 1.654 7.798 2.578 9.01 2.65"/><path d="m281.29 334.08c0.858-0.153 1.729-0.361 2.452-0.846 0.724-0.485 1.281-1.299 1.243-2.169-0.049-1.087-1.021-1.964-2.077-2.228-1.055-0.266-2.169-0.047-3.218 0.242-1.238 0.342-8.084 2.691-7.78 4.518 0.273 1.634 8.185 0.695 9.38 0.483"/><path d="m268.18 310.91c0.858-0.153 1.728-0.361 2.453-0.846 0.724-0.484 1.28-1.299 1.242-2.169-0.049-1.088-1.02-1.963-2.076-2.229-1.056-0.265-2.17-0.046-3.219 0.243-1.237 0.341-8.084 2.691-7.779 4.517 0.272 1.635 8.185 0.696 9.379 0.484"/><path d="m270.58 320.12c0.66-0.117 1.332-0.278 1.889-0.652 0.558-0.372 0.986-1 0.956-1.67-0.037-0.838-0.786-1.513-1.598-1.717-0.814-0.205-1.672-0.036-2.481 0.187-0.953 0.263-6.228 2.072-5.993 3.48 0.209 1.26 6.306 0.536 7.227 0.372"/><path d="m246.6 301.86c-0.524 0.419-1.037 0.88-1.35 1.474-0.311 0.595-0.388 1.351-0.043 1.926 0.433 0.718 1.414 0.954 2.226 0.745s1.485-0.767 2.09-1.348c0.712-0.686 4.483-4.794 3.605-5.919-0.786-1.007-5.797 2.539-6.528 3.122"/><path d="m249.59 308.27c-0.598 0.302-1.196 0.648-1.623 1.166-0.428 0.517-0.659 1.241-0.438 1.875 0.276 0.792 1.186 1.224 2.024 1.187s1.612-0.445 2.322-0.891c0.838-0.524 5.374-3.769 4.746-5.052-0.562-1.146-6.195 1.294-7.031 1.715"/><path d="m260.73 303.07c0.665 0.093 1.352 0.149 1.998-0.033 0.646-0.183 1.249-0.646 1.429-1.293 0.223-0.807-0.28-1.681-0.989-2.128-0.71-0.447-1.578-0.552-2.416-0.591-0.987-0.046-6.564 0.04-6.777 1.451-0.191 1.262 5.829 2.464 6.755 2.594"/><path d="m276.22 328.22c0.734-0.13 1.478-0.308 2.097-0.723 0.619-0.414 1.095-1.111 1.062-1.855-0.041-0.93-0.872-1.679-1.775-1.906-0.902-0.227-1.856-0.04-2.753 0.208-1.058 0.291-6.914 2.301-6.653 3.863 0.232 1.398 7 0.595 8.022 0.413"/><path d="m294.45 364.26c0.601 0.631 1.255 1.243 2.059 1.578 0.804 0.336 1.79 0.351 2.494-0.162 0.88-0.64 1.073-1.934 0.712-2.961-0.361-1.026-1.159-1.835-1.979-2.55-0.967-0.843-6.706-5.255-8.062-3.992-1.212 1.129 3.94 7.208 4.776 8.087"/><path d="m281.26 358.83c-0.013 0.87 0.028 1.764 0.367 2.567 0.339 0.802 1.034 1.503 1.896 1.63 1.076 0.157 2.12-0.632 2.58-1.618 0.46-0.987 0.455-2.122 0.369-3.207-0.1-1.279-1.114-8.446-2.966-8.493-1.657-0.041-2.229 7.907-2.246 9.121"/><path d="m273.43 350.51c-0.205 0.847-0.364 1.728-0.211 2.585 0.152 0.858 0.675 1.695 1.486 2.01 1.016 0.392 2.208-0.146 2.875-1.006 0.668-0.86 0.914-1.968 1.072-3.045 0.184-1.27 0.785-8.484-1.011-8.939-1.606-0.408-3.926 7.215-4.211 8.395"/><path d="m267.29 343.38c-0.372 0.787-0.708 1.618-0.732 2.488-0.025 0.871 0.316 1.797 1.048 2.27 0.914 0.591 2.191 0.306 3.019-0.4s1.295-1.741 1.667-2.764c0.44-1.205 2.494-8.146 0.829-8.957-1.49-0.726-5.311 6.266-5.831 7.363"/><path d="m261.86 335.75c-0.478 0.728-0.924 1.505-1.068 2.364-0.143 0.859 0.067 1.822 0.727 2.392 0.824 0.71 2.128 0.604 3.045 0.018 0.918-0.586 1.522-1.547 2.032-2.509 0.6-1.133 3.588-7.727 2.05-8.759-1.376-0.923-6.121 5.478-6.786 6.494"/><path d="m257.26 328.52c-0.477 0.728-0.923 1.505-1.067 2.364s0.067 1.823 0.726 2.391c0.825 0.711 2.129 0.605 3.046 0.019s1.522-1.547 2.031-2.509c0.601-1.133 3.588-7.727 2.05-8.758-1.376-0.924-6.121 5.477-6.786 6.493"/><path d="m253.9 321.68c-0.478 0.729-0.924 1.505-1.068 2.364-0.143 0.859 0.067 1.823 0.727 2.392 0.824 0.711 2.128 0.604 3.045 0.018 0.918-0.586 1.522-1.546 2.031-2.508 0.601-1.134 3.589-7.727 2.051-8.759-1.376-0.923-6.121 5.478-6.786 6.493"/><path d="m249.95 314.11c-0.793 0.358-1.585 0.775-2.168 1.423-0.582 0.648-0.92 1.574-0.668 2.408 0.314 1.042 1.472 1.651 2.56 1.648 1.089-3e-3 2.114-0.49 3.06-1.028 1.115-0.635 7.172-4.6 6.426-6.296-0.667-1.516-8.103 1.344-9.21 1.845"/></g><path d="m74.119 234.17c-0.7743 29.35-8.9129 58.476-23.465 83.975" fill="none" stroke="#382e91" stroke-miterlimit="10" stroke-width=".6815"/><g fill="#382e91"><path d="m50.758 309.31c-0.7602 0.364-1.5625 0.691-2.4051 0.718-0.8426 0.028-1.7394-0.299-2.2-1.005-0.5754-0.882-0.3047-2.119 0.3754-2.922 0.6805-0.805 1.6797-1.261 2.668-1.625 1.1644-0.429 7.873-2.444 8.664-0.835 0.7079 1.438-6.0429 5.162-7.1023 5.669"/><path d="m52.818 301.43c-0.8043 0.251-1.6454 0.461-2.4829 0.368s-1.6789-0.544-2.0339-1.308c-0.4438-0.956 0-2.141 0.7879-2.841 0.7882-0.698 1.8425-1.007 2.8722-1.227 1.2145-0.259 8.141-1.297 8.6949 0.408 0.4954 1.525-6.7171 4.249-7.8382 4.6"/><path d="m54.581 292.83c-0.8411 0.058-1.7071 0.067-2.5-0.219-0.7934-0.285-1.5071-0.919-1.6746-1.745-0.2098-1.032 0.4972-2.082 1.4261-2.579 0.9285-0.496 2.0258-0.552 3.0785-0.527 1.2411 0.031 8.22 0.631 8.3621 2.418 0.1282 1.598-7.5203 2.572-8.6921 2.652"/><path d="m61.457 268.02c-0.8406 0.057-1.7074 0.066-2.5003-0.219-0.793-0.286-1.5067-0.92-1.6747-1.745-0.2093-1.032 0.4977-2.083 1.4266-2.579 0.9289-0.497 2.0262-0.553 3.0785-0.527 1.241 0.03 8.2199 0.631 8.3625 2.417 0.1274 1.598-7.5207 2.572-8.6926 2.653"/><path d="m61.37 277.22c-0.648 0.044-1.3152 0.051-1.9261-0.169-0.6114-0.22-1.1614-0.708-1.2907-1.345-0.1617-0.795 0.3836-1.604 1.0992-1.986 0.7157-0.383 1.561-0.426 2.3719-0.406 0.9563 0.023 6.3332 0.485 6.443 1.861 0.098 1.232-5.7945 1.982-6.6973 2.045"/><path d="m79.599 254.46c0.5906 0.27 1.1805 0.583 1.6125 1.067 0.4321 0.485 0.6821 1.177 0.4918 1.798-0.2375 0.776-1.1027 1.226-1.914 1.221-0.8118-5e-3 -1.5747-0.372-2.2782-0.776-0.8289-0.476-5.3332-3.45-4.7726-4.712 0.5019-1.129 6.0375 1.025 6.8605 1.402"/><path d="m78.294 261.17c0.6336 0.143 1.275 0.328 1.7977 0.714 0.5223 0.385 0.909 1.011 0.8504 1.657-0.0727 0.808-0.8266 1.428-1.6219 1.589-0.7953 0.162-1.6172-0.039-2.3887-0.291-0.9097-0.296-5.9289-2.28-5.639-3.63 0.2582-1.208 6.1187-0.238 7.0015-0.039"/><path d="m66.618 258.9c-0.602 0.243-1.2348 0.457-1.8836 0.437-0.6492-0.019-1.3235-0.313-1.6438-0.878-0.4-0.706-0.1328-1.644 0.4285-2.23 0.5622-0.586 1.3528-0.888 2.1301-1.121 0.916-0.275 6.1715-1.502 6.7028-0.227 0.475 1.14-4.8954 3.68-5.734 4.019"/><path d="m57.972 286.15c-0.7192 0.05-1.4606 0.058-2.1387-0.186-0.6781-0.245-1.2887-0.787-1.432-1.493-0.1793-0.883 0.4258-1.781 1.2199-2.206 0.7941-0.424 1.7328-0.472 2.6332-0.45 1.0613 0.026 7.0301 0.539 7.1523 2.067 0.1086 1.367-6.4324 2.2-7.4347 2.268"/><path d="m49.301 324.25c-0.416 0.733-0.8867 1.46-1.5625 1.964s-1.5989 0.749-2.3801 0.433c-0.9762-0.395-1.4613-1.564-1.3625-2.613 0.0984-1.049 0.6578-1.994 1.2605-2.858 0.7106-1.018 5.0641-6.505 6.6321-5.638 1.4031 0.777-2.0074 7.69-2.5875 8.712"/><path d="m60.419 316.07c0.216 0.815 0.3882 1.664 0.2578 2.497-0.1305 0.832-0.618 1.653-1.3973 1.974-0.9742 0.401-2.1395-0.095-2.8023-0.914-0.6633-0.818-0.9247-1.885-1.0985-2.924-0.2051-1.224-0.9336-8.191 0.7942-8.668 1.5453-0.427 3.9457 6.9 4.2461 8.035"/><path d="m65.816 306.42c0.3907 0.747 0.7473 1.537 0.8043 2.378 0.0574 0.841-0.2359 1.749-0.925 2.235-0.8605 0.606-2.1066 0.381-2.9347-0.27-0.8278-0.651-1.3196-1.634-1.7196-2.608-0.4711-1.149-2.7254-7.78-1.1468-8.629 1.4125-0.759 5.3769 5.853 5.9218 6.894"/><path d="m69.903 298.28c0.5348 0.652 1.0442 1.353 1.2711 2.165 0.2274 0.811 0.1242 1.76-0.4512 2.376-0.7195 0.769-1.9855 0.801-2.9285 0.332-0.9425-0.468-1.6238-1.33-2.2136-2.203-0.695-1.029-4.2508-7.064-2.8782-8.215 1.2286-1.031 6.4551 4.637 7.2004 5.545"/><path d="m73.214 289.85c0.6187 0.572 1.2191 1.196 1.5554 1.969 0.3372 0.773 0.3657 1.727-0.1203 2.415-0.6074 0.861-1.8566 1.067-2.855 0.732-0.9985-0.335-1.7915-1.095-2.4954-1.879-0.8293-0.923-5.18-6.413-3.9777-7.743 1.075-1.189 7.0301 3.708 7.893 4.506"/><path d="m75.841 281.98c0.6192 0.572 1.2199 1.196 1.5563 1.969 0.3363 0.773 0.3644 1.727-0.1211 2.416-0.607 0.86-1.8563 1.066-2.8547 0.731s-1.7914-1.095-2.4949-1.879c-0.8297-0.924-5.1809-6.413-3.9785-7.742 1.0753-1.189 7.0304 3.708 7.8929 4.505"/><path d="m77.394 274.78c0.6191 0.572 1.2199 1.197 1.5562 1.97 0.3363 0.772 0.3648 1.727-0.1211 2.415-0.607 0.861-1.8562 1.066-2.8551 0.732-0.998-0.336-1.791-1.096-2.4949-1.879-0.8293-0.924-5.1805-6.413-3.9781-7.743 1.0758-1.189 7.0308 3.708 7.893 4.505"/><path d="m79.322 266.74c0.8293 0.151 1.6711 0.357 2.3691 0.828 0.6985 0.472 1.234 1.262 1.193 2.105-0.0512 1.052-0.9957 1.895-2.018 2.147-1.0226 0.253-2.0992 0.036-3.1133-0.248-1.1953-0.335-7.8113-2.637-7.5089-4.403 0.2707-1.581 7.9222-0.639 9.0781-0.429"/></g><g><g fill-rule="evenodd"><path d="m79.16 308.18h217.12c4.439 0 8.069-3.632 8.069-8.068v-137.17c0-4.439-3.63-8.069-8.069-8.069h-217.12c-4.4383 0-8.068 3.63-8.068 8.069v137.17c0 4.436 3.6297 8.068 8.068 8.068" fill="#27285d"/><path d="m83.194 287.25h209.05v-107.3h-209.05v107.3" fill="#e8f7f8"/><path d="m187.72 296.96c1.621 0 2.935 1.312 2.935 2.934 0 1.621-1.314 2.933-2.935 2.933s-2.934-1.312-2.934-2.933c0-1.622 1.313-2.934 2.934-2.934" fill="#def4ef"/><path d="m30.579 165.13h314.29v-9.049c0-3.206-2.626-5.83-5.831-5.83h-302.63c-3.2074 0-5.8305 2.624-5.8305 5.83v9.049" fill="#27285d"/><path d="m155.98 157.42h63.484v-4.046h-63.484v4.046" fill="#27285d"/><path d="m30.579 165.13h314.29v-4.523h-314.29v4.523" fill="#e0e1df"/></g><path d="m286.26 294.11h-197.11c-3.2875 0-5.9512-2.401-5.9512-5.368v-10.179h209.01v10.179c0 2.967-2.664 5.368-5.952 5.368" fill="#afdde3"/></g><g fill="#fff"><path d="m95.373 286.17c0-1.657-1.491-2.994-3.3195-2.994-1.8406 0-3.3262 1.337-3.3262 2.994 0 1.654 1.4856 2.996 3.3262 2.996 1.8285 0 3.3195-1.342 3.3195-2.996"/><path d="m104.68 286.17c0-1.657-1.498-2.994-3.326-2.994-1.8399 0-3.3255 1.337-3.3255 2.994 0 1.654 1.4856 2.996 3.3255 2.996 1.828 0 3.326-1.342 3.326-2.996"/><path d="m113.97 286.17c0-1.657-1.497-2.994-3.326-2.994-1.827 0-3.325 1.337-3.325 2.994 0 1.654 1.498 2.996 3.325 2.996 1.829 0 3.326-1.342 3.326-2.996"/><path d="m283.53 283.47h-160.25v5.394h160.25v-5.394"/></g><path d="m103.02 197.93 29.618 12.114 29.618 12.964 29.618 11.97h29.891l29.347 11.872" fill="none" stroke="#f2c20a" stroke-miterlimit="10" stroke-width=".89045"/><path d="m103.02 210.54 29.618 12.114 29.618-12.114 29.618 11.249 29.619 36.457 29.619 12.864" fill="none" stroke="#03a6ea" stroke-miterlimit="10"/><path d="m223.19 258.25c0-0.936-0.759-1.696-1.695-1.696-0.937 0-1.696 0.76-1.696 1.696s0.759 1.695 1.696 1.695c0.936 0 1.695-0.759 1.695-1.695" fill="#fff"/><path d="m223.19 258.25c0-0.936-0.759-1.696-1.695-1.696-0.937 0-1.696 0.76-1.696 1.696s0.759 1.695 1.696 1.695c0.936 0 1.695-0.759 1.695-1.695z" fill="none" stroke="#03a6ea" stroke-miterlimit="10"/><path d="m193.57 221.79c0-0.936-0.759-1.695-1.696-1.695-0.936 0-1.694 0.759-1.694 1.695s0.758 1.695 1.694 1.695c0.937 0 1.696-0.759 1.696-1.695" fill="#fff"/><path d="m193.57 221.79c0-0.936-0.759-1.695-1.696-1.695-0.936 0-1.694 0.759-1.694 1.695s0.758 1.695 1.694 1.695c0.937 0 1.696-0.759 1.696-1.695z" fill="none" stroke="#03a6ea" stroke-miterlimit="10"/><path d="m163.95 210.54c0-0.937-0.759-1.697-1.695-1.697s-1.696 0.76-1.696 1.697c0 0.936 0.76 1.695 1.696 1.695s1.695-0.759 1.695-1.695" fill="#fff"/><path d="m163.95 210.54c0-0.937-0.759-1.697-1.695-1.697s-1.696 0.76-1.696 1.697c0 0.936 0.76 1.695 1.696 1.695s1.695-0.759 1.695-1.695z" fill="none" stroke="#03a6ea" stroke-miterlimit="10"/><path d="m134.33 222.66c0-0.937-0.759-1.697-1.695-1.697s-1.696 0.76-1.696 1.697c0 0.936 0.76 1.694 1.696 1.694s1.695-0.758 1.695-1.694" fill="#fff"/><path d="m134.33 222.66c0-0.937-0.759-1.697-1.695-1.697s-1.696 0.76-1.696 1.697c0 0.936 0.76 1.694 1.696 1.694s1.695-0.758 1.695-1.694z" fill="none" stroke="#03a6ea" stroke-miterlimit="10"/><path d="m192.89 234.83c0-0.936-0.759-1.697-1.696-1.697-0.936 0-1.695 0.761-1.695 1.697 0 0.935 0.759 1.694 1.695 1.694 0.937 0 1.696-0.759 1.696-1.694" fill="#fff"/><path d="m192.89 234.83c0-0.936-0.759-1.697-1.696-1.697-0.936 0-1.695 0.761-1.695 1.697 0 0.935 0.759 1.694 1.695 1.694 0.937 0 1.696-0.759 1.696-1.694z" fill="none" stroke="#f2c20a" stroke-miterlimit="10" stroke-width=".89045"/><path d="m223.16 234.83c0-0.936-0.757-1.697-1.693-1.697s-1.696 0.761-1.696 1.697c0 0.935 0.76 1.694 1.696 1.694s1.693-0.759 1.693-1.694" fill="#fff"/><path d="m223.16 234.83c0-0.936-0.757-1.697-1.693-1.697s-1.696 0.761-1.696 1.697c0 0.935 0.76 1.694 1.696 1.694s1.693-0.759 1.693-1.694z" fill="none" stroke="#f2c20a" stroke-miterlimit="10" stroke-width=".89045"/><g><path d="m41.636 225.87c0.1442-1.55-0.5886-3.151-0.1258-4.637 0.625-2.005 3.0704-2.821 4.2012-4.591 1.2305-1.925 0.4653-4.761-1.4531-6-1.9184-1.24-4.6387-0.891-6.3535 0.619-1.0305 0.907-1.7172 2.153-2.1524 3.454-0.5218 1.561-0.7066 3.219-0.6828 4.864 0.0141 0.941 0.0992 1.9 0.4715 2.764 0.5727 1.332 1.7484 2.285 2.7199 3.362 0.4832 0.534 0.9282 1.138 1.2082 1.807 0.2153 0.514 0.1485 1.601 0.5071 1.903 0.8535-0.892 1.5457-2.31 1.6597-3.545" fill="#2f3052"/><path d="m51.595 130.6 1.8332-9.948 6.3102-1.628 3.3582-0.102-6.5145 3.256-1.4758 8.475-3.5113-0.053" fill="#f9b18a"/><path d="m53.325 119.02 1.3234-0.102 0.7121 0.916 5.5985-1.655 3.5613-0.28s-0.2664 0.563-0.4828 0.739c-0.65 0.528-3.232 1.501-3.232 1.501s0.0511-0.813-0.3563-0.917c-0.4062-0.099-4.2746 0.967-5.1898 1.325-1.577 0.612-1.9387 1.104-2.0364 1.018-0.2543-0.231 0.102-2.545 0.102-2.545" fill="#211f1c"/><path d="m49.503 189.94 7.9192-32.825-1.6668-28.64-4.8641 0.309c-2.2508 28.507 0.1895 23.794-0.9051 28.13-0.6984 2.757-12.302 27.209-9.9211 33.065 2.3786 5.856 9.4379-0.039 9.4379-0.039" fill="#322e83"/><path d="m27.479 128.04-2.6726-9.859 0.2332-0.724 6.3089-1.63 3.3582-0.1-6.5125 3.254 3.152 9.672-3.8672-0.613" fill="#f9b18a"/><path d="m24.935 115.83 1.3234-0.1 0.7145 0.916 5.0617-1.425 4.3011-0.205s-7e-3 0.334-0.1785 0.483c-0.6351 0.56-3.7922 1.5-3.7922 1.5s0.1282-0.964-0.2793-1.067c-0.4074-0.102-4.2992 1.067-5.2152 1.426-1.5765 0.613-1.9402 1.104-2.0351 1.016-0.2551-0.229 0.0996-2.544 0.0996-2.544" fill="#211f1c"/><path d="m36.099 185-1.6703-26.666s-3.2246-6.52-3.7305-9.109c-1.1375-5.831-4.5968-23.315-4.5968-23.315l5.1722-1.028s9.4582 30.125 10.363 32.809c0.9051 2.681 8.8992 25.106 6.684 31.101-2.2129 5.994-12.222-3.792-12.222-3.792" fill="#382e91"/><path d="m38.167 229.55c-2.6449-1e-3 -4.3891-3.155-4.3891-3.155l0.684-10.544-3.9992 3.702s-1.6914 5.981 0.0766 10.672c1.3777 2.92 5.3738 3.196 7.9011 1.337 1.2289-0.903 2.4254-2.455 2.7028-3.93 0.1488-0.793-1.1996 1.918-2.9762 1.918" fill="#2f3052"/><path d="m36.304 220.51 0.1699-2.814c0.0746-1.239-1.1183-2.164-2.2992-1.784l-2.0758 0.668 1.3645 8.038 2.8406-4.108" fill="#f89f6c"/><path d="m32.994 226.36c0.3293 0.242 0.8672 0.115 1.2012-0.284 0.334-0.4 0.3371-0.92 0.0082-1.163-0.3297-0.242-0.8672-0.115-1.2012 0.285-0.3339 0.399-0.3379 0.92-0.0082 1.162" fill="#f9b18a"/><path d="m37.376 220.28c0.5051-0.053 0.9824-0.033 1.2558 0.151 1.7645 2.114 0.9575 8.57 0.9575 8.57l-2.1731 1.385-3.2187-1.614-0.7344-4.153c-0.1957-1.109 0.1469-2.244 0.9242-3.059 0.8551-0.7 1.8891-1.164 2.9887-1.28" fill="#f9b18a"/><path d="m35.91 222.91c-0.132-0.111-0.3281-0.092-0.4914-0.039-0.4421 0.144-1.441 1.19-0.516 1.361 0.5391 0.1 1.5735-0.848 1.0074-1.322" fill="#f6827a"/><path d="m39.264 227.03c-0.1993-1e-3 -0.4063-0.075-0.5289-0.232 0.0589-0.092 0.1742-0.133 0.2836-0.136 0.1089-3e-3 0.2164 0.023 0.3242 0.036 0.1093 0.012 0.2199 0.011 0.3281-4e-3 0.048-8e-3 0.0965-0.017 0.1434-8e-3 0.2449 0.045 0.0121 0.198-0.0563 0.241-0.1266 0.08-0.3477 0.104-0.4941 0.103" fill="#141212"/></g><path d="m39.799 225.4c-0.0988 0.128-0.257 0.208-0.4183 0.211-0.1618 3e-3 -0.3231-0.069-0.427-0.193" fill="none" stroke="#27285d" stroke-linecap="round" stroke-linejoin="round" stroke-miterlimit="10" stroke-width=".18501"/><path d="m36.475 226.78c-0.2109 0.048-0.4461 0.083-0.6309-0.029-0.13-0.078-0.223-0.222-0.3714-0.253 0.0246 0.17 0.1589 0.31 0.314 0.387s0.3297 0.103 0.5012 0.126c0.2246 0.031 0.7258 0.223 0.809-0.077 0.0972-0.349-0.4317-0.197-0.6219-0.154" fill="#141212"/><g fill="none" stroke-linecap="round" stroke-linejoin="round" stroke-miterlimit="10"><path d="m36.923 225.36c-0.1175 0.135-0.325 0.152-0.4988 0.108-0.1519-0.039-0.2933-0.117-0.407-0.224" stroke="#27285d" stroke-width=".18501"/><path d="m38.505 223.98c-0.1215-0.223-0.3871-0.358-0.6391-0.325" stroke="#27285d" stroke-width=".18501"/><path d="m38.473 221.96c-0.2238-0.116-0.5039-0.087-0.7273 0.03-0.2238 0.117-0.3977 0.312-0.5387 0.521" stroke="#f6827a" stroke-width=".23875"/></g><path d="m39.687 223.81c-0.1273-3e-3 -0.243-0.197-0.2832-0.347-0.0699-0.264-0.0734-0.547-9e-3 -0.813 0.0137-0.058 0.0332-0.118 0.0785-0.156 0.0075-6e-3 0.0161-7e-3 0.0239-0.012 0.023 0.087 0.0472 0.185 0.0703 0.3 0.0664 0.331 0.1121 0.807 0.1195 1.028" fill="#f6827a"/><g fill="#e6d6b0"><path d="m71.069 219.28c0.7024 0.211 1.2739 0.035 1.9313-0.257 0.616-0.275 1.0894-0.031 1.0894-0.031s0.2219-0.034-1.1496 0.562c-0.3851 0.167-0.8132 0.328-1.2273 0.344-0.3859 0.015-1.0809-0.037-1.3609-0.188-0.6301-0.338-0.5082-0.797 0.7171-0.43"/><path d="m50.519 211.08c3.9895-0.295 15.075 6.006 15.075 6.006s3.466 3.497-12.527-2.114c-4.802-1.684-3.5328-3.819-2.5477-3.892"/><path d="m71.852 219.21-0.1657 0.321-1.2054 0.302s-2.2079-0.378-2.9864-0.82c-0.7824-0.443-4.1816-0.932-4.5703-1.104-0.3883-0.173-0.5246-2.148-0.5246-2.148s3.2965 1.33 4.6461 1.748c1.3516 0.417 3.4856 0.345 4.0215 0.49 0.9141 0.244 1.3926 0.318 1.3926 0.318s-0.1996 0.47-1.6563 0.17c-0.3851-0.079-0.2683 0.391-0.2683 0.391l1.3168 0.332"/><path d="m70.291 218.82s-0.0144 0.761 0.2848 0.817c0.7191 0.133 1.8332 0.326 2.1926 0.312 0.3976-0.013 2.266-0.395 2.266-0.395s-0.6145-0.288-1.3754-0.186c-1.0426 0.138-3.368-0.548-3.368-0.548"/></g><g><path d="m57.951 217.52-6.6379-1.647s-14.977 0.926-16.297-0.408c-1.5644-1.585-3.0008-4.775-3.0008-4.775l18.167-0.82 7.7446 0.77 0.0242 6.88" fill="#f9e004"/><path d="m86.322 205.11-0.8543 6.129-26.545-3.7c-1.693-0.236-2.8735-1.798-2.6375-3.491l0.1566-1.125 0.0055-0.037c0.4437-1.418 1.8953-2.308 3.416-2.096l26.545 3.7-0.8539 6.129" fill="#0994d3"/><path d="m56.889 203.84c0.0035-0.035 0.0043-0.07 0.0089-0.105 0.2192-1.571 1.6704-2.667 3.2407-2.448l26.208 3.652-0.411 2.949-29.047-4.048" fill="#fff"/><path d="m85.555 210.62-26.209-3.653c-1.5352-0.214-2.6141-1.605-2.457-3.135l29.047 4.048-0.3812 2.74" fill="#e9e9e7"/><path d="m83.597 211.61-0.8539 6.129-26.545-3.7c-1.6929-0.235-2.8734-1.798-2.6375-3.491l0.1567-1.125 0.0047-0.037c0.4437-1.418 1.8957-2.308 3.4168-2.096l26.545 3.7-0.8543 6.129" fill="#f03ca2"/><path d="m82.829 217.12-26.208-3.653c-1.4762-0.205-2.5328-1.499-2.4727-2.958l29.038 4.046-0.3574 2.565" fill="#e9e9e7"/><path d="m54.149 210.51c0.0039-0.094 0.0117-0.187 0.0246-0.282 0.2192-1.571 1.6696-2.667 3.2407-2.448l26.208 3.652-0.4356 3.124-29.038-4.046" fill="#fff"/><path d="m77.668 217.53-0.8539 6.128-26.546-3.698c-1.6926-0.237-2.8735-1.799-2.6375-3.493l0.1566-1.124 0.0055-0.037c0.4437-1.418 1.8953-2.307 3.416-2.096l26.545 3.7-0.8539 6.129" fill="#382e91"/><path d="m76.622 223.04-26.208-3.653c-1.4762-0.206-2.5325-1.499-2.4731-2.958l29.038 4.046-0.357 2.565" fill="#e9e9e7"/><path d="m47.941 216.42c0.0039-0.093 0.0117-0.187 0.025-0.282 0.2188-1.571 1.6699-2.667 3.2403-2.448l26.208 3.652-0.4355 3.124-29.038-4.046" fill="#fff"/><path d="m81.861 224.75-0.8539 6.129-26.545-3.699c-1.6929-0.235-2.8734-1.799-2.6379-3.491l0.1571-1.125 5e-3 -0.037c0.4442-1.418 1.8957-2.308 3.4161-2.096l26.546 3.699-0.8539 6.129" fill="#f9e004"/><path d="m81.094 230.26-26.209-3.652c-1.4762-0.205-2.5325-1.499-2.4727-2.958l29.038 4.046-0.3566 2.564" fill="#e9e9e7"/><path d="m52.412 223.65c0.0039-0.094 0.0117-0.188 0.025-0.282 0.2188-1.572 1.6695-2.667 3.2406-2.449l26.208 3.653-0.4355 3.124-29.038-4.046" fill="#fff"/><path d="m38.704 229.83c0.3027-1.938-4.9258-3.429-4.9258-3.429l-0.925 2.493 2.643 2.47 2.8019-0.846s0.3532-0.365 0.4059-0.688" fill="#2f3052"/><path d="m38.682 229.43c0.0039-0.749 1.0285-1.796 1.0285-1.796l0.2274 0.864-0.1777 0.653-0.5442 0.406s-0.5375 0.622-0.534-0.127" fill="#2f3052"/><path d="m53.871 189.77c-1.5965-0.967-2.302-2.988-3.2133-4.617-0.3848 1.61-1.1996 3.364-1.7172 4.664-1.234 3.096-2.9664 6.558-3.9574 9.739-0.9492 3.047-1.5519 6.027-1.9285 9.201 0.7562-0.522 1.0633-2.859 1.3965-3.758 0.5066-1.368 1.0793-2.71 1.7156-4.023 1.2855-2.651 2.8293-5.177 4.6039-7.528 0.2574-0.341 2.891-3.805 3.1004-3.678" fill="#ecd309"/><path d="m46.887 185.82 3.7 2.687s-3.7266 6.302-5.0308 10.351c-1.3051 4.05-1.4352 5.419-1.4024 6.736 0.0324 1.317 0.4078 2.917-0.6387 4.227-1.0453 1.307-5.6398 5.702-6.4214 6.278-0.4297 0.318 9.7933-30.279 9.7933-30.279" fill="#fff"/><path d="m48.447 184.3s-3.3137 9.691-4.8782 14.6c-1.5644 4.91-5.2203 14.137-5.6039 15.314-0.3839 1.177-1.332 2.681-1.332 2.681s-2.1234 1.121-3.7902 0.561c-1.6641-0.561-3.4262-2.604-2.6407-8.427 0.5165-3.797 6.5559-13.42 6.6934-14.326 0.1359-0.906-2.3328-9.101-1.9992-11.315 0.3344-2.214 0.3797-2.515 0.3797-2.515s8.3043 5.677 13.171 3.427" fill="#ecd309"/><path d="m62.522 201.26c3.2203-0.44 4.7933 0.835 6.1269 1.115 1.3348 0.281 2.7078 0.802 2.6989 0.791-0.8809-1.155-1.927-1.05-2.5024-1.383-0.5707-0.335-0.4086-0.148 0.7258-0.384 0.6469-0.134 1.9293 0.755 2.8281 1.22 0.7793 0.4 1.234 0.382 1.234 0.382s-0.9707-0.942-2.1457-1.647c-1.4168-0.85-3.1121-1.494-3.5066-1.574-0.7188-0.154-2.8782 0.075-4.3891 0.472-1.7008 0.448-3.3875 1.327-1.0699 1.008" fill="#f9b18a"/><path d="m43.103 204.01s0.25 1.256 6.9879 0.141c6.7367-1.118 16.38-4.274 16.38-4.274l-15.764 1.255s-6.0079 0.744-7.6036 2.878" fill="#f9b18a"/><path d="m48.447 205.87s-6.2832 1.005-6.618-2.428c-0.1891-1.951 1.0797-2.921 2.9824-3.193 3.5422-0.507 7.5946-0.911 7.5946-0.911l2.9437 4.802-6.9027 1.73" fill="#f9e004"/><path d="m45.101 206.92-10.982 8.259s-1.7004 0.547-2.6047-0.429c-1.3078-1.405-1.4332-2.474-0.8188-3.426 1.2156-1.881 0.3465-1.175 6.5813-6.06 5.6968-4.469 7.9961-6.377 10.228-3.786 2.0844 2.415-2.4039 5.442-2.4039 5.442" fill="#f9e004"/><path d="m69.03 200.21s2.516 0.382 2.9742 0.645c0.3184 0.182 1.6707 1.292 1.6707 1.292s-0.9359-0.064-1.5047-0.478c-0.5687-0.417-3.1402-1.459-3.1402-1.459" fill="#f9b18a"/><path d="m32.875 218.95 1.5969-0.692 2.3043-1.114-0.0645-2.277-4.4316 2.911 0.5949 1.172" fill="#f9e004"/><path d="m35.759 218.1c-0.2422 1.109-0.7504 2.565-1.3852 3.504-0.555 0.822-1.609 1.074-2.2922 1.76-0.6433 0.646-0.864 1.679-0.5402 2.532 0.2809 0.741 0.9395 1.403 0.8262 2.188-0.0129 0.088-0.0387 0.17-0.0699 0.249 1.3902 1.526 2.8171 3.413 0.7035 3.597-2.8614 0.248-6.0731-3.097-6.7957-5.613-0.259-0.901-0.2731-1.888-0.0184-2.785 0-9e-3 -0.0012-0.019-0.0012-0.029 0.0473-1.147 0.5942-2.214 0.7809-3.347 0.0168-0.106 0.0312-0.217-0.0035-0.319-0.086-0.251-0.4035-0.315-0.6672-0.346-1.3379-0.157-2.7262-0.502-3.7055-1.427-1.1367-1.074-1.5168-2.763-1.3652-4.319 0.2226-2.293 1.5359-4.474 3.5043-5.672 1.9683-1.198 4.5539-1.352 6.6144-0.32 2.0598 1.032 3.4989 3.242 3.5274 5.546 0.0031 0.253-9e-3 0.511 0.0652 0.753 0.0809 0.261 0.2555 0.482 0.3996 0.714 0.6039 0.978 0.668 2.212 0.4227 3.334" fill="#2f3052"/><path d="m155.02 243.62c-4.594-3.92-11.048-4.907-16.938-3.918-4.488 0.754-8.893 2.627-12.145 5.899-3.251 3.272-5.214 8.048-4.587 12.684 0.592 4.377 3.417 8.225 7.016 10.635s7.905 3.504 12.185 3.856c4.21 0.346 8.587-0.023 12.365-1.963 9.46-4.857 9.999-20.457 2.104-27.193" fill="#03a6ea"/><path d="m138.18 243.82-9.348-11.248 3.08 18.583z" fill="#03a6ea"/></g><g fill="#fff" fill-rule="evenodd"><path d="m134.52 257.43c0-1.246-1.01-2.257-2.257-2.257-1.246 0-2.256 1.011-2.256 2.257s1.01 2.256 2.256 2.256c1.247 0 2.257-1.01 2.257-2.256"/><path d="m143.64 256.31c0-1.246-1.009-2.256-2.256-2.256-1.246 0-2.256 1.01-2.256 2.256s1.01 2.256 2.256 2.256c1.247 0 2.256-1.01 2.256-2.256"/><path d="m152.81 255.17c0-1.246-1.01-2.256-2.256-2.256s-2.256 1.01-2.256 2.256 1.01 2.257 2.256 2.257 2.256-1.011 2.256-2.257"/></g><path d="m177.57 109.84-43.395 0.727c-3.397 0.057-6.104 2.856-6.047 6.252l1.104 65.962c0.057 3.396 2.856 6.103 6.252 6.047l43.395-0.727c3.396-0.056 6.103-2.855 6.047-6.252l-1.104-65.962c-0.057-3.396-2.856-6.103-6.252-6.047" fill="#bfb9e3"/><path d="m141.57 152.67-7.234 0.122c-0.422 6e-3 -0.759 0.354-0.751 0.776l0.121 7.234c7e-3 0.422 0.354 0.758 0.776 0.751l7.235-0.121c0.421-7e-3 0.757-0.354 0.751-0.776l-0.122-7.235c-6e-3 -0.421-0.354-0.757-0.776-0.751" fill="#2a3c8f"/><g fill="#27285d"><path d="m153.99 152.46-7.235 0.121c-0.422 7e-3 -0.758 0.355-0.751 0.776l0.121 7.235c7e-3 0.422 0.355 0.758 0.777 0.751l7.234-0.121c0.422-8e-3 0.758-0.355 0.751-0.776l-0.121-7.236c-7e-3 -0.421-0.354-0.757-0.776-0.75"/><path d="m166.4 152.25-7.235 0.122c-0.421 6e-3 -0.757 0.354-0.75 0.776l0.12 7.234c8e-3 0.422 0.355 0.758 0.777 0.751l7.235-0.121c0.421-7e-3 0.758-0.354 0.751-0.776l-0.121-7.235c-8e-3 -0.421-0.355-0.757-0.777-0.751"/><path d="m178.81 152.04-7.234 0.122c-0.422 6e-3 -0.758 0.354-0.751 0.776l0.121 7.234c7e-3 0.422 0.355 0.758 0.776 0.751l7.235-0.121c0.422-7e-3 0.758-0.354 0.751-0.776l-0.121-7.235c-7e-3 -0.421-0.355-0.757-0.777-0.751"/><path d="m141.38 140.98-7.235 0.121c-0.422 8e-3 -0.758 0.355-0.751 0.776l0.121 7.236c7e-3 0.422 0.355 0.757 0.776 0.75l7.235-0.12c0.422-8e-3 0.758-0.356 0.751-0.777l-0.121-7.235c-7e-3 -0.422-0.355-0.758-0.776-0.751"/><path d="m153.79 140.78-7.235 0.121c-0.421 7e-3 -0.757 0.354-0.751 0.776l0.122 7.235c7e-3 0.422 0.355 0.757 0.776 0.751l7.235-0.121c0.421-7e-3 0.758-0.355 0.75-0.777l-0.121-7.234c-7e-3 -0.422-0.354-0.758-0.776-0.751"/><path d="m166.2 140.57-7.234 0.121c-0.422 7e-3 -0.758 0.354-0.751 0.776l0.121 7.235c7e-3 0.422 0.355 0.757 0.777 0.751l7.234-0.121c0.422-7e-3 0.758-0.355 0.751-0.777l-0.121-7.234c-7e-3 -0.422-0.355-0.758-0.777-0.751"/><path d="m178.62 140.36-7.235 0.121c-0.421 8e-3 -0.758 0.355-0.75 0.776l0.121 7.236c7e-3 0.421 0.354 0.757 0.776 0.75l7.235-0.121c0.421-7e-3 0.757-0.355 0.75-0.777l-0.121-7.234c-7e-3 -0.422-0.354-0.758-0.776-0.751"/><path d="m141.18 129.3-7.234 0.121c-0.422 7e-3 -0.758 0.355-0.751 0.777l0.121 7.234c7e-3 0.422 0.354 0.758 0.776 0.751l7.235-0.121c0.421-7e-3 0.758-0.355 0.75-0.776l-0.121-7.235c-7e-3 -0.422-0.354-0.758-0.776-0.751"/><path d="m153.6 129.09-7.235 0.121c-0.422 7e-3 -0.758 0.355-0.751 0.777l0.121 7.234c7e-3 0.422 0.355 0.758 0.777 0.751l7.234-0.121c0.422-7e-3 0.758-0.355 0.751-0.776l-0.121-7.235c-7e-3 -0.422-0.355-0.758-0.776-0.751"/><path d="m166.01 128.89-7.235 0.121c-0.421 8e-3 -0.758 0.355-0.75 0.777l0.121 7.235c7e-3 0.421 0.354 0.758 0.776 0.75l7.235-0.121c0.421-7e-3 0.757-0.355 0.751-0.776l-0.122-7.235c-7e-3 -0.422-0.354-0.758-0.776-0.751"/></g><path d="m178.34 137.44-6.773 0.113c-0.549 9e-3 -1.002-0.429-1.01-0.977l-0.095-5.66-0.019-1.114-0.082-4.909-0.012-0.749-0.102-6.025c-9e-3 -0.548 0.429-1.001 0.978-1.01l6.773-0.114c0.549-8e-3 1.002 0.429 1.011 0.978l0.101 6.023 0.012 0.75 0.083 4.91 0.019 1.114 0.094 5.658c9e-3 0.55-0.428 1.002-0.978 1.012" fill="#2a3c8f"/><g fill="#27285d"><path d="m140.99 117.62-7.235 0.121c-0.422 7e-3 -0.758 0.354-0.751 0.776l0.121 7.234c7e-3 0.422 0.355 0.758 0.777 0.751l7.234-0.121c0.422-7e-3 0.758-0.354 0.751-0.776l-0.121-7.234c-7e-3 -0.422-0.355-0.758-0.776-0.751"/><path d="m153.4 117.41-7.235 0.121c-0.421 8e-3 -0.757 0.354-0.75 0.776l0.121 7.235c7e-3 0.421 0.354 0.758 0.776 0.75l7.235-0.121c0.422-7e-3 0.758-0.354 0.751-0.776l-0.121-7.234c-8e-3 -0.422-0.355-0.758-0.777-0.751"/><path d="m165.81 117.2-7.235 0.121c-0.422 6e-3 -0.758 0.354-0.751 0.776l0.121 7.234c7e-3 0.422 0.355 0.758 0.776 0.751l7.235-0.121c0.422-7e-3 0.758-0.354 0.751-0.776l-0.121-7.235c-7e-3 -0.421-0.355-0.758-0.776-0.75"/><path d="m179.86 169.12-45.999 0.769 0.197 11.79 45.999-0.769-0.197-11.79"/><path d="m179.86 169.12-45.999 0.769 0.208 12.447 45.999-0.769-0.208-12.447"/></g><g><path d="m178.74 170.34-35.618 0.494 35.76 9.787z" fill="#382e91"/><path d="m116.74 121.61 0.078-11.248 4.654 1.629s1.968 1.426 0.271 1.24c-2.482-0.269-1.977 0.776-2.056 2.793-0.076 2.017 0.311 5.895 0.311 5.895l-3.258-0.309" fill="#f7bfa7"/><path d="m122.1 113.23s-0.528-0.494-1.085-0.853c-0.543-0.349-2.106-1.119-2.714-1.24-0.776-0.154-1.513-0.078-1.513-0.078s-0.349-1.163 0.425-1.087c0.776 0.078 4.656 1.787 5.198 2.173 0.543 0.388 0.621 1.008-0.311 1.085" fill="#211f1c"/><path d="m117.78 183.59-0.591-30.423-0.547-32.256 3.93 0.207s3.965 32.468 4.298 35.34c0.334 2.871 5.089 21.965 1.909 27.546-3.181 5.581-8.999-0.414-8.999-0.414" fill="#382e91"/><path d="m107.98 120.6-0.388-8.765-5.519-0.437-2.4486 0.301 4.8666 1.531 0.543 7.294 2.946 0.076" fill="#f7bfa7"/><path d="m107.16 110.71-1.201-0.154-0.207 0.336-4.564-0.064-2.2111 0.581s-0.0914 0.386 0.1171 0.504c0.6235 0.356 2.987 0.543 2.987 0.543s-0.315-0.438-0.064-0.632c0.247-0.197 3.287-0.086 4.039 0.039 1.297 0.215 1.71 0.601 1.749 0.495 0.102-0.28-0.645-1.648-0.645-1.648" fill="#211f1c"/><path d="m106.3 184.22-0.745-33.172-2.257-32.55 4.973-0.392s4.645 32.798 5.198 35.636c0.55 2.836 6.437 25.594 3.692 31.402-2.745 5.809-10.861-0.924-10.861-0.924" fill="#382e91"/><path d="m107.41 200.89s1.247-0.169 0.553-6.862c-0.697-6.695-3.226-16.37-3.226-16.37l0.293 15.582s0.373 5.955 2.38 7.65" fill="#f7bfa7"/><path d="m105.74 182.88c-0.242-3.192 1.107-4.661 1.463-5.959 0.354-1.296 0.949-2.615 0.936-2.608-1.187 0.798-1.144 1.833-1.51 2.375-0.361 0.545-0.17 0.398-0.333-0.733-0.094-0.644 0.858-1.853 1.368-2.708 0.443-0.744 0.451-1.192 0.451-1.192s-0.986 0.899-1.749 2.013c-0.92 1.344-1.655 2.973-1.759 3.354-0.191 0.7-0.095 2.836 0.205 4.345 0.337 1.702 1.102 3.413 0.928 1.113" fill="#f7bfa7"/><path d="m110.95 210.38-1.784-18.695v-1.087l-5.353 0.312s1.55 14.427 1.785 15.127c0.233 0.698 0.775 6.749 0.697 7.835-0.077 1.084 0.156 6.514 3.724 5.972 3.568-0.543 0.931-9.464 0.931-9.464" fill="#0994d3"/><path d="m117 221.3s-6.102-0.413-7.55-1.034c-1.447-0.62-1.137-7.758-0.208-13.033 0.932-5.274 0.518-11.17-0.826-14.479-1.345-3.311-2.378-9.621-2.378-9.621l21.41 0.312s-4.862 13.135-4.862 18.202c0 5.069 1.344 16.653 1.241 17.791s-5.481 1.862-6.827 1.862" fill="#03a6ea"/><path d="m125.09 199.21c4.332 0.405 16.514-6.209 16.514-6.209s3.844-3.73-13.658 2.03c-5.256 1.73-3.924 4.078-2.856 4.179" fill="#f7bfa7"/><path d="m150.77 185.32-0.401 1.675-0.683 1.23-1.782 1.427s-2.073 1.276-3.027 1.478c-0.955 0.201-3.887 2.301-4.328 2.44-0.442 0.136-2.167-1.433-2.167-1.433s3.647-1.282 5.049-1.912c1.402-0.633 3.093-2.223 3.633-2.49 0.925-0.457 1.804-0.586 1.804-0.586s-1.299 0.961-1.669 1.175c-0.371 0.213 0.063 0.512 0.063 0.512s1.925-1.133 2.301-1.637c0.375-0.505 0.532-1.087 0.532-1.087l0.675-0.792" fill="#f7bfa7"/><path d="m122.39 203.36c0.38-2.66 1.077-5.515 3.174-7.195 1.194 0.691 2.387 1.382 3.579 2.073-2.059 2.582-2.517 6.086-2.481 9.387 0.038 3.302 0.488 6.634-0.071 9.888-0.137 0.794-0.342 1.598-0.808 2.255-0.466 0.656-1.241 1.142-2.042 1.071-2.946-0.261-2.241-4.354-2.155-6.242 0.171-3.759 0.271-7.505 0.804-11.237" fill="#0994d3"/><path d="m128.72 218.26c0 2.016-1.18 3.753-2.884 4.57-2.412 1.755-3.99 4.542-4.034 7.698v7e-3 0.256c5e-3 0.112 0.013 0.223 0.019 0.334-6e-3 3e-3 -0.013 4e-3 -0.019 6e-3v3.961c0 2.961-2.4 5.363-5.361 5.363h-1.342c-2.962 0-5.362-2.402-5.362-5.363v-2.011c0-0.193 0.011-0.382 0.031-0.57 0.046-1.583 0.137-1.996 0.137-3.093 0-2.64-0.763-4.439-2.098-6.041 7e-3 -0.011 0.014-0.022 0.02-0.032-0.987-1.237-1.581-2.79-1.581-4.482 0-3.034 1.892-5.632 4.584-6.732 1.266-2.259 3.717-3.792 6.535-3.792 3.259 0 6.023 2.054 7.032 4.909 2.445 0.364 4.323 2.465 4.323 5.012" fill="#27285d"/><path d="m107.49 230.74c0.139-1.12 0.464-2.266 0.167-3.355-0.292-1.065-1.124-1.877-1.794-2.753-1.622-2.12-2.385-4.96-1.711-7.542 0.673-2.582 2.903-4.775 5.553-5.097-0.132-2.299 0.165-4.716 1.439-6.634 1.275-1.918 3.706-3.189 5.928-2.581 2.222 0.606 3.689 3.456 2.478 5.416 1.181-1.252 3.106-1.958 4.67-1.242 1.564 0.715 2.18 3.149 0.844 4.233 2.001-0.422 4.221 0.698 5.073 2.558 0.851 1.86 0.247 4.272-1.38 5.511-1.409 1.074-3.452 1.346-4.436 2.817-1.683 2.514 1.127 6.124-0.197 8.844-0.742 1.524-2.654 2.399-2.936 4.071-0.102 0.61 0.039 1.234 0.011 1.851-0.196 4.391-6.088 4.13-8.979 2.954-3.608-1.467-5.222-5.105-4.73-9.051" fill="#27285d"/></g><g fill="none" stroke="#382e91" stroke-miterlimit="10" stroke-width=".5"><path d="m113.59 237.9c-1.73-3.609-3.248-7.846-1.625-11.505 0.971-2.19 2.917-3.771 4.836-5.205 1.918-1.435 3.936-2.869 5.165-4.926s1.438-4.943-0.201-6.691"/><path d="m115.7 238.43c0.687-1.132 0.389-2.571 0.158-3.874-0.231-1.304-0.3-2.839 0.669-3.742 0.618-0.576 1.503-0.734 2.296-1.024 0.878-0.322 1.701-0.848 2.257-1.6 0.557-0.751 0.82-1.745 0.582-2.649"/><path d="m108.5 223.54c-0.357-2.448 0.39-5.036 1.996-6.917 0.626-0.734 1.37-1.36 1.985-2.102 1.722-2.08 2.284-5.064 1.434-7.627"/></g><path d="m260.72 238.61c5.011-3.693 11.788-4.309 17.864-2.958 4.63 1.029 9.11 3.185 12.306 6.689 3.197 3.504 4.966 8.453 4.046 13.106-0.869 4.393-4.032 8.12-7.919 10.345-3.887 2.224-8.434 3.075-12.911 3.177-4.403 0.1-8.941-0.532-12.763-2.719-9.57-5.477-9.231-21.292-0.623-27.64" fill="#f03ca2"/><path d="m278.24 239.81 10.382-10.826-4.279 18.62z" fill="#f03ca2"/><g fill="#fff"><path d="m266.7 251.5c-0.246-1.504-1.664-2.523-3.167-2.277s-2.523 1.665-2.277 3.168c0.246 1.504 1.665 2.523 3.168 2.277 1.504-0.247 2.523-1.665 2.276-3.168"/><path d="m277.4 252.17c-0.246-1.504-1.664-2.523-3.168-2.277-1.503 0.246-2.523 1.665-2.277 3.168 0.247 1.503 1.665 2.523 3.168 2.277 1.503-0.247 2.523-1.665 2.277-3.168"/><path d="m287.41 252.5c-0.246-1.503-1.664-2.522-3.168-2.276-1.503 0.246-2.522 1.664-2.276 3.168 0.246 1.503 1.664 2.523 3.168 2.276 1.503-0.246 2.523-1.664 2.276-3.168"/></g><g fill="#29274b"><path d="m292.67 232.69c-0.15-3.978 2.751-7.316 6.478-7.458 3.726-0.14 6.871 2.972 7.02 6.953 0.151 3.977-2.751 7.317-6.48 7.457-3.726 0.14-6.868-2.973-7.018-6.952"/><path d="m293.48 227.89c-0.052 1.129 0.498 2.224 1.483 2.777 0.508 0.286 1.057 0.519 1.641 0.69 4.092 1.198 8.359-1.075 9.535-5.08 1.173-4.006-1.191-8.225-5.282-9.427-3.233-0.947-6.571 0.278-8.409 2.811-0.708 0.974-0.742 2.271-0.149 3.319 0.836 1.477 1.262 3.174 1.181 4.91"/><path d="m296.56 111.71c-0.17-0.519-0.475-1.107-0.984-1.147-0.495-0.038-0.865 0.481-1.002 0.988-0.238 0.87-0.079 1.808 0.082 2.705 0.159 0.894 0.318 1.787 0.477 2.679 0.308 1.731 1.623 1.723 1.94 0.043 0.316-1.684 0.015-3.657-0.513-5.268"/></g><path d="m291.4 166.16c0.685 0.342 2.538-2.515 3.179-4.921 1.258-4.718 1.419-7.263 1.516-12.308 0.153-8.003 0.512-20.728 0.485-26.122-0.023-4.862 1.083-10.75-1.504-9.624 0.841 6.575-0.769 16.841-1.768 22.25-3.415 18.472-4.018 29.681-1.908 30.725" fill="#f9b18a"/><path d="m303.9 116.59c0.088-0.679 0.135-1.386-0.08-2.037-0.217-0.649-0.756-1.234-1.436-1.316-0.16-0.019-0.324-0.01-0.476 0.045-0.481 0.175-0.684 0.74-0.773 1.245-0.179 1.016-0.136 2.05-0.062 3.072 0.046 0.656-0.056 2.137 0.672 2.478 1.655 0.772 2.052-2.69 2.155-3.487" fill="#29274b"/><g fill="#f9b18a"><path d="m304.38 165.51c-0.071 1.256-0.15 2.491-0.238 3.71-0.615 1.847-1.238 2.859-1.833 2.807-2.245-0.199-5.622-9.744-2.14-34.067 0.175-1.222 1.06-21.873 1.334-22.298 0.728-1.125 2.437-1.208 1.766 2.917-2.028 12.458 2.062 30.278 1.111 46.931"/><path d="m281.84 201.71c-4.269-3.088-22.135-6.641-22.135-6.641s-3.738 1.176 19.098 9.193c1.141 0.4 4.092-1.789 3.037-2.552"/><path d="m258.59 194.26s-1.437-0.441-1.897-1.038c-0.322-0.416-1.505-2.619-1.505-2.619s0.861 0.346 1.341 1.229c0.699 1.294 2.061 2.428 2.061 2.428"/><path d="m257.33 193.1c-0.926-0.186-1.642-1.013-2.252-2.186-0.578-1.114-1.379-1.247-1.379-1.247s0.297 0.759 1.376 2.395c0.304 0.459 0.632 0.912 0.965 1.342 1.098 1.425 3.671 0.171 1.29-0.304"/><path d="m260.02 194.76c-0.19-0.633-1.247-1.308-1.24-1.721 0.016-1.199 0.387-1.84 0.371-1.838-1.369 0.245-1.226 2.215-1.713 2.919-0.483 0.7 3.074 2.282 2.582 0.64"/><path d="m267.26 197.62c-2.434-0.475-5.238-0.968-6.438-1.768-1.71-1.138-2.091-2.479-3.489-2.756-0.154-0.031-0.296-0.095-0.445-0.144-0.395-0.135-0.862-0.211-1.02-0.289-0.178-0.085-0.65-0.387-0.511-0.19 1.241 1.744 2.801 3.572 3.27 3.792 0.962 0.451 6.399 2.715 8.591 3.14 2.471 0.476 3.331-1.141 0.042-1.785"/><path d="m257.31 193.3s-0.105 0.503-0.501 0.442c-0.645-0.102-1.759-0.814-2.144-1.084-0.425-0.302-2.211-2.059-2.211-2.059s0.927 0.073 1.648 0.777c1.049 1.031 3.208 1.924 3.208 1.924"/></g><path d="m282.09 202.06 9.226 12.154 2.512 5.576c-0.138 0.482-0.414 0.906-0.822 1.206l-0.276 0.202c-1.074 0.782-2.651 0.39-3.523-0.878l-10.658-15.464 3.541-2.796" fill="#f03ca2"/><g fill="#f9b18a"><path d="m328.36 220.8 0.353-0.254 0.161-1.484s-0.815-2.562-1.469-3.42c-0.656-0.856-1.799-4.82-2.07-5.253s-2.641-0.269-2.641-0.269 2.128 3.702 2.846 5.241c0.719 1.538 0.988 4.088 1.246 4.702 0.445 1.048 0.61 1.605 0.61 1.605s0.526-0.316-0.072-2c-0.158-0.445 0.423-0.384 0.423-0.384l0.613 1.516"/><path d="m328.26 219.54s0.408-0.224 0.604 0.083c0.319 0.511 0.495 1.707 0.537 2.134 0.049 0.478-0.098 2.764-0.098 2.764s-0.506-0.687-0.448-1.605c0.081-1.342-0.595-3.376-0.595-3.376"/><path d="m328.32 219.85c0.426 0.753 0.285 1.743-0.161 2.87-0.425 1.068-0.035 1.699-0.035 1.699s0.348-0.657 0.832-2.386c0.135-0.486 0.254-1.022 0.205-1.519-0.145-1.498-1.941-2.597-0.841-0.664"/><path d="m311.62 211.28c2.097-1.747 3.706-7.555 5.001-11.25 0.731-2.083 0.329-3.598 0.329-3.598s-1.022-4.724-5.943 8.598c-1.232 3.333-0.176 6.905 0.613 6.25"/><path d="m315.16 196.75c0.307 4.798 9.635 16.944 9.635 16.944s4.736 3.549-4.585-14.553c-2.798-5.436-5.129-3.573-5.05-2.391"/><path d="m328.36 218.93s0.491 1.284 0.32 1.953c-0.12 0.466-1.045 2.563-1.045 2.563s-0.236-0.82 0.132-1.662c0.539-1.233 0.593-2.854 0.593-2.854"/><path d="m327.32 219.67c0.403 1.131 0.296 1.645 0.183 1.861-0.093-0.269-0.252-0.696-0.502-1.289-0.09-0.211-0.181-0.659-0.293-1.219-0.022-0.105 0.378-0.229 0.484-1.167 0.018-0.169 0.384 0.819 0.471 1.428-0.151 4e-3 -0.464 0.045-0.343 0.386"/></g><g><path d="m312.79 198.76-4.536 11.315-1.631 7.815c0.29 0.366 0.69 0.653 1.173 0.803l0.326 0.102c1.267 0.394 2.611-0.315 3.005-1.581l5.344-15.534-3.681-2.92" fill="#f03ca2"/><path d="m309.01 183c-0.237 4.526-3.426 8.335-1.936 20.498-8e-3 1e-3 -0.016 2e-3 -0.025 2e-3l1.858 15.392-17.751 2.735 0.36-7.457c-0.61-0.798-1.155-2.022-1.36-2.601-0.473-1.337-0.399-2.962 0.555-4.012 0.343-0.379 0.777-0.673 1.173-0.997l0.092-1.891c-0.018 1e-3 -0.036 3e-3 -0.054 4e-3 1.367-11.213-10.754-12.236-3.782-51.685 7.328-1.59 8.723-0.684 17.294 0.034 0.803-0.061 4.728 8.014 3.576 29.978" fill="#f03ca2" fill-rule="evenodd"/><g><path d="m307.66 220.46s-3.422-6.091-7.203-6.809c-3.783-0.714-5.541 0.155-6.022 1.676-0.48 1.519-0.517 4.47 0.371 5.188 0.885 0.718 1.751 1.438 2.553 2.802 0.655 1.112 0.55 3.196 0.183 4.82-0.368 1.623-1.65 1.778-0.337 2.48s0.806 1.471 2.082 1.209c1.28-0.263 2.048 0.19 2.001-1.042-0.084-2.247-0.388-5.399 0.813-6.894 1.332-1.658 2.679-2.198 5.559-3.43" fill="#f9b18a"/><path d="m297.04 236.81c0.109 0.027 0.224 0.05 0.338 0.066 0.181-1.335 1.179-2.941 2.762-4.234 0.385-0.313 0.782-0.586 1.179-0.823l-0.046-1.243c-0.071-1.839-1.684-3.274-3.608-3.201-1.923 0.075-3.424 1.623-3.356 3.463l0.104 2.801c0.982 0.601 1.939 1.723 2.627 3.171" fill="#f9b18a"/><path d="m298.78 230.25c0.143-0.121 0.359-0.101 0.539-0.044 0.485 0.157 1.584 1.303 0.57 1.494-0.592 0.111-1.729-0.927-1.109-1.45" fill="#f6827a"/><path d="m295.11 234.78c0.217-1e-3 0.569-0.063 0.579-0.256-0.033-0.13-0.192-0.145-0.312-0.148-0.119-4e-3 -0.237 0.026-0.355 0.04-0.12 0.015-0.241 0.013-0.361-4e-3 -0.052-7e-3 -0.105-0.018-0.157-8e-3 -0.268 0.05-0.012 0.218 0.063 0.265 0.138 0.087 0.382 0.112 0.543 0.111" fill="#29274b"/><path d="m298.17 234.5c0.231 0.052 0.489 0.089 0.692-0.033 0.142-0.086 0.245-0.245 0.407-0.28-0.027 0.188-0.174 0.341-0.344 0.427-0.17 0.085-0.361 0.113-0.55 0.139-0.246 0.036-0.796 0.246-0.887-0.082-0.109-0.382 0.472-0.218 0.682-0.171" fill="#29274b"/></g></g><path d="m295.93 231.44c0.133-0.245 0.424-0.394 0.701-0.358" fill="none" stroke="#27285d" stroke-linecap="round" stroke-linejoin="round" stroke-miterlimit="10" stroke-width=".20306"/><path d="m297.67 232.94c0.13 0.147 0.358 0.166 0.548 0.117 0.166-0.043 0.321-0.129 0.446-0.247" fill="none" stroke="#27285d" stroke-linecap="round" stroke-linejoin="round" stroke-miterlimit="10" stroke-width=".20306"/><path d="m297.87 232.48c-0.019-0.173 0.052-0.327 0.16-0.342 0.107-0.015 0.209 0.113 0.227 0.287 0.02 0.174-0.053 0.327-0.16 0.342s-0.209-0.113-0.227-0.287" fill="#29274b"/><path d="m294.52 232.99c0.109 0.14 0.283 0.227 0.46 0.231 0.178 3e-3 0.354-0.078 0.468-0.214" fill="none" stroke="#27285d" stroke-linecap="round" stroke-linejoin="round" stroke-miterlimit="10" stroke-width=".20306"/><path d="m294.91 232.59c-0.018-0.173 0.054-0.327 0.162-0.342 0.107-0.015 0.209 0.113 0.227 0.287 0.019 0.174-0.053 0.327-0.16 0.342-0.108 0.016-0.209-0.113-0.229-0.287" fill="#29274b"/><path d="m295.96 229.21c0.245-0.129 0.553-0.098 0.799 0.03s0.438 0.341 0.593 0.571" fill="none" stroke="#f6827a" stroke-linecap="round" stroke-linejoin="round" stroke-miterlimit="10" stroke-width=".26203"/><g><path d="m294.33 231.26c0.14-3e-3 0.298-0.223 0.342-0.388 0.076-0.291 0.079-0.601 8e-3 -0.893-0.016-0.063-0.037-0.13-0.087-0.171-8e-3 -7e-3 -0.141 0.014-0.149 0.01-0.026 0.095-0.095 0.394-0.105 0.521-0.035 0.439-0.051 0.671-9e-3 0.921" fill="#f6827a"/><path d="m306.82 233.62c0.45-1.644 0.63-3.496 1.841-4.696 1.822-1.805 5.021-1.213 7.098-2.717 0.73-0.529 1.268-1.286 1.674-2.09 1.337-2.65 1.262-5.997-0.319-8.509-1.58-2.511-4.656-4.04-7.597-3.643-2.94 0.397-5.546 2.775-6.075 5.695-0.515 2.843 0.807 5.677 1.01 8.56 0.152 2.18-1.021 4.064-2.11 5.96-0.744 1.295-3.648 1.498-4.392 4.855-0.403 1.813 2.732 2.377 4.237 1.995 3.012-0.764 4.303-4.202 4.633-5.41" fill="#29274b"/><path d="m379.09 109.85 0.028 13.857-60.022 0.12c-3.827 7e-3 -6.935-3.088-6.943-6.915l-5e-3 -2.543v-0.083c0.54-3.284 3.479-5.712 6.918-5.718l60.021-0.12 0.028 13.858" fill="#0994d3"/><path d="m313.42 116.24c-3e-3 -0.079-0.012-0.157-0.012-0.237-7e-3 -3.551 2.867-6.437 6.418-6.444l59.259-0.117 0.014 6.668-65.679 0.13" fill="#fff"/><path d="m379.11 122.31-59.259 0.117c-3.472 7e-3 -6.3-2.74-6.432-6.181l65.679-0.13 0.012 6.194" fill="#e9e9e7"/><path d="m375.08 125.12 0.028 13.857-60.022 0.119c-3.827 8e-3 -6.934-3.088-6.942-6.916l-5e-3 -2.542-1e-3 -0.084c0.54-3.283 3.48-5.711 6.918-5.718l60.021-0.119 0.029 13.858" fill="#f03ca2"/><path d="m375.11 137.57-59.26 0.118c-3.338 7e-3 -6.085-2.531-6.41-5.784l65.658-0.131 0.012 5.797" fill="#e9e9e7"/><path d="m309.44 131.91c-0.022-0.209-0.033-0.42-0.033-0.634-8e-3 -3.553 2.866-6.438 6.418-6.444l59.258-0.118 0.015 7.065-65.658 0.131" fill="#fff"/><path d="m363.79 140.09 0.028 13.858-60.022 0.119c-3.828 8e-3 -6.935-3.088-6.943-6.916l-5e-3 -2.542v-0.083c0.54-3.284 3.48-5.712 6.918-5.719l60.021-0.119 0.028 13.858" fill="#382e91"/><path d="m363.2 152.63-59.26 0.118c-3.337 6e-3 -6.085-2.532-6.41-5.785l65.658-0.13 0.012 5.797" fill="#e9e9e7"/><path d="m297.53 146.96c-0.021-0.208-0.034-0.42-0.034-0.633-6e-3 -3.552 2.867-6.437 6.418-6.444l59.26-0.118 0.014 7.065-65.658 0.13" fill="#fff"/><path d="m408.82 169.66 0.027 13.857-60.022 0.12c-3.827 7e-3 -6.935-3.089-6.943-6.916l-5e-3 -2.543v-0.083c0.54-3.284 3.48-5.711 6.918-5.718l60.022-0.119 0.027 13.858" fill="#382e91"/><path d="m408.23 182.21-59.26 0.118c-3.337 7e-3 -6.085-2.532-6.41-5.784l65.658-0.131 0.012 5.797" fill="#e9e9e7"/><path d="m342.56 176.54c-0.021-0.209-0.032-0.42-0.033-0.634-7e-3 -3.553 2.867-6.438 6.418-6.445l59.259-0.118 0.014 7.066-65.658 0.131" fill="#fff"/><path d="m375.35 154.79 0.027 13.858-60.021 0.119c-3.827 8e-3 -6.936-3.088-6.943-6.915l-5e-3 -2.543v-0.083c0.54-3.284 3.48-5.711 6.918-5.718l60.021-0.119 0.027 13.857" fill="#f9e004"/><path d="m375.37 167.25-59.258 0.118c-3.338 6e-3 -6.086-2.532-6.411-5.785l65.659-0.13 0.01 5.797" fill="#e9e9e7"/><path d="m309.7 161.58c-0.021-0.209-0.033-0.419-0.033-0.633-8e-3 -3.552 2.866-6.438 6.418-6.445l59.259-0.117 0.015 7.065-65.659 0.13" fill="#fff"/><path d="m180.9 307.93s17.231-0.035 23.881-0.137c4.602-0.068 5.022 6.492 3.206 7.48-5.51 2.999-22.703 4.539-22.703 4.539l-11.697-10.739s0.657 0.018 7.313-1.143" fill="#382e91"/><path d="m204.45 277.3 0.322-3.504 3.507-0.343s0.244 0.469 0.541 0.44c0.25-0.024 0.526-0.544 0.864-0.577 0.738-0.075 1.557-0.151 1.884-0.186 0.659-0.064 7.039-0.687 7.039-0.687s0.229 0.708 0.06 0.976c-0.086 0.136-0.651 0.419-1.032 0.566-1.762 0.684-6.791 2.783-7.524 4.602-0.89 2.215-5.661-1.287-5.661-1.287" fill="#211f1c"/><path d="m206.93 311.67s-1.778-2.807-6.653-3.471c-1.763-0.24 2.842-31.428 2.842-31.428l7.205 2.307-1.394 34.49-2-1.898" fill="#382e91"/><path d="m161.1 274.99c-0.264-0.322-0.072-1.167-0.072-1.167s4.639-0.516 6.131-0.166c0.388 0.09 1.044 0.425 1.661 0.778 0.104 0.059 0.288 0.416 0.389 0.475 0.187 0.113 0.284-0.074 0.443 0.026 0.412 0.261 0.705 0.463 0.709 0.489 0.407 2.129-0.135 2.984-0.135 2.984s-3.949 1.313-4.69 0.4c-1.741-2.156-3.856-3.115-4.436-3.819" fill="#211f1c"/><path d="m172.23 314.28s-1.143-10.83-0.98-16.556c0.123-4.318 0.136-12.595-0.893-19.648-0.062-0.435-5.579-0.108-5.579-0.108s-1.979 26.848-2.568 31.269c-0.587 4.424 1.123 7.613 10.02 5.043" fill="#382e91"/><path d="m187.05 308.2s-9.418-1.344-15.705-2.002c-2.306-0.243-4.3 6.209-4.567 6.489-1.684 1.762-3.345 1.538-3.287 1.603 1.362 1.471 8.416 2.838 15.788 4.569 7.369 1.726 8.492 0.638 8.492 0.638l-0.721-11.297" fill="#382e91"/><path d="m200.66 342.59-11.361 3.674-8.602 0.578-9.422-2.851s-3.084-2.126-0.22-8.955c2.863-6.831 1.762-17.534 1.762-17.534l24.308-0.779s0.459 9.894 2.071 19.791c0.359 2.208 0.404 4.807 1.464 6.076" fill="#d5f1f5"/><path d="m167.22 319.22 12.291-0.641s-11.839-5.432-12.23-4.496c-2.219 5.305-0.061 5.137-0.061 5.137" fill="#f9b18a"/><path d="m176.48 343.89s-3.787 2.965-7.49-2.54c-5.429-8.066-7.786-16.65-8.649-19.132-0.659-1.906-0.294-7.29 1.923-9.509 0.536-0.534 3.74-0.105 3.74-0.105l2.104 1.453-0.881 1.693-0.047 1.338s2.69 6.49 5.993 12.625c3.307 6.135 3.307 14.177 3.307 14.177" fill="#d5f1f5"/><path d="m165.63 313.08-0.844 5.39 1.4 1.441 3.105-0.497-0.635-5.963-3.026-0.371" fill="#cceef4"/><path d="m199.15 321.66-11.86-4.843s8.413-1.2 13.672-0.13c3.557 0.728-1.65 5.126-1.812 4.973" fill="#f9b18a"/><path d="m197.15 343.09s4.429 1.242 6.357-4.544c2.961-8.876 2.699-17.019 2.287-18.756-0.19-0.798-0.759-3.556-5.709-3.663-2.007-0.044-1.205 4.258-1.205 4.258s-1.287 3.653-2.658 9.833c-1.37 6.181 0.928 12.872 0.928 12.872" fill="#cceef4"/><path d="m203.32 316.95 0.323 1.982-3.925 3.525-2.127-0.959 2.779-5.317 2.95 0.769" fill="#cceef4"/><path d="m188.81 343.59c-0.169-1.315-1.241-2.454-2.37-2.507h-3.211c-1.128 0.053-2.202 1.192-2.368 2.507-0.263 2.166-0.527 4.332-0.789 6.5-0.176 1.299 0.596 3.905 2.304 4.676 1.563 0.686 3.355 0.686 4.918 0 1.708-0.771 2.48-3.377 2.305-4.676-0.263-2.168-0.526-4.334-0.789-6.5" fill="#f89c66"/><path d="m184.35 358.89c-0.9 0-1.691-0.462-2.149-1.162h-0.883c-1.1 0-1.992-0.891-1.992-1.992v-4.918h1.402v2.001c0 0.773 0.628 1.399 1.401 1.399h0.817-1.296 0.859c1.418 0 2.568 1.15 2.568 2.571v2.101h-0.727" fill="#1d3c59"/><path d="m181.87 348.99c0-0.675-0.546-1.219-1.221-1.219h-0.101c-0.673 0-1.22 0.544-1.22 1.219v1.479c0 0.671 0.547 1.219 1.22 1.219h0.101c0.499 0 0.927-0.3 1.117-0.727" fill="#f9b18a"/><path d="m183.26 356.94v1.954h4.219c1.421 0 2.571-1.151 2.571-2.569v-1.954h-4.222c-1.418 0-2.568 1.148-2.568 2.569" fill="#1d3c59"/><path d="m189.68 347.12c-5e-3 -1.021-0.786-2.753-2.08-3.298-1.758-0.728-3.84-0.728-5.598 0-1.297 0.545-2.072 2.276-2.079 3.298v8.701c-6e-3 1.027 1.019 1.89 2.285 1.917h5.187c1.265-0.024 2.293-0.89 2.285-1.917v-8.701" fill="#f9b18a"/><path d="m185.8 358.89c0.901 0 1.692-0.462 2.148-1.162h0.885c1.098 0 1.99-0.891 1.99-1.992v-4.918h-1.4v2.001c0 0.773-0.629 1.399-1.402 1.399h-0.013 0.492-2.269c-1.42 0-2.569 1.15-2.569 2.571v2.101h2.138" fill="#1d3c59"/><path d="m188.31 350.47c0 0.672 0.544 1.217 1.219 1.217h0.102c0.673 0 1.219-0.545 1.219-1.217v-1.48c0-0.673-0.546-1.22-1.219-1.22h-0.102c-0.498 0-0.928 0.297-1.117 0.724" fill="#f9b18a"/><path d="m183.67 356.43c0.032 0.163 0.049 0.329 0.049 0.503v1.954h-1.818c-1.422 0-2.572-1.151-2.572-2.569v-1.954h1.821c0.181 0 0.358 0.018 0.527 0.055 0.203 1.006 0.989 1.799 1.993 2.011" fill="#1d3c59"/><path d="m181.34 348.76c0.159-0.42 0.211-0.88 0.15-1.324-0.013-0.097-0.034-0.199-0.103-0.268-0.116-0.119-0.327-0.088-0.45 0.024-0.123 0.111-0.178 0.279-0.22 0.44-0.087 0.336-0.332 1.157-0.097 1.476 0.298 0.403 0.597-0.022 0.72-0.348" fill="#f79072"/><path d="m188.9 348.24c-0.014-0.456-0.159-0.918-0.42-1.332-0.056-0.089-0.124-0.182-0.227-0.229-0.177-0.081-0.39 0.012-0.472 0.158-0.083 0.145-0.069 0.324-0.043 0.493 0.053 0.353 0.15 1.223 0.543 1.463 0.496 0.303 0.631-0.199 0.619-0.553" fill="#f79072"/><path d="m182.49 352.61c0.327 8e-3 0.669-0.102 0.878-0.354-0.092-0.153-0.279-0.225-0.458-0.236-0.178-0.012-0.355 0.027-0.533 0.043-0.179 0.015-0.361 7e-3 -0.537-0.024-0.078-0.013-0.157-0.031-0.235-0.019-0.403 0.062-0.029 0.325 0.081 0.398 0.203 0.137 0.564 0.186 0.804 0.192" fill="#2f3052"/></g><path d="m181.7 350.9c0.155 0.215 0.411 0.353 0.675 0.366 0.265 0.014 0.533-0.098 0.709-0.296" fill="none" stroke="#2f3052" stroke-linecap="round" stroke-linejoin="round" stroke-miterlimit="10" stroke-width=".25"/><path d="m186.85 352.72c-0.326 8e-3 -0.669-0.102-0.877-0.354 0.092-0.153 0.279-0.226 0.458-0.237 0.178-0.011 0.355 0.028 0.533 0.043 0.179 0.016 0.36 8e-3 0.538-0.023 0.077-0.013 0.156-0.031 0.234-0.02 0.403 0.063 0.028 0.325-0.081 0.399-0.204 0.137-0.564 0.186-0.805 0.192" fill="#2f3052"/><g fill="none" stroke-linecap="round" stroke-linejoin="round" stroke-miterlimit="10" stroke-width=".25"><path d="m187.65 351.02c-0.155 0.215-0.41 0.352-0.675 0.366-0.264 0.013-0.532-0.099-0.709-0.296" stroke="#2f3052"/><path d="m183.84 348.77c0.222-0.351 0.671-0.544 1.079-0.464" stroke="#2f3052"/><path d="m183.83 345.66c0.648-0.214 1.37-0.197 2.006 0.049" stroke="#f79072"/></g><g><path d="m185.21 360.68c-3.362 0.076-6.09-0.517-6.093-1.326l-0.022-4.87c-3e-3 -0.809 2.719-1.526 6.081-1.603 3.361-0.076 6.09 0.517 6.093 1.327l0.021 4.869c4e-3 0.809-2.718 1.527-6.08 1.603" fill="#27285d"/><path d="m173.85 359.67 11.896 2.887 10.89-2.834-11.208-3.977-11.578 3.924" fill="#382e91"/><path d="m176.88 353.13c-0.026-1e-3 -0.052 8e-3 -0.074 0.027-0.052 0.044-0.064 0.129-0.026 0.188 0.822 1.32-0.262 5.304-0.273 5.344l-0.042 0.152 9.282 1.408c0.064 9e-3 0.122-0.043 0.131-0.117 9e-3 -0.073-0.035-0.141-0.098-0.151l-9.012-1.366c0.199-0.77 1.002-4.142 0.199-5.43-0.021-0.034-0.054-0.053-0.087-0.055" fill="#f9e004"/><path d="m186.31 360.14c9e-3 -0.18-0.227-0.337-0.526-0.351s-0.548 0.12-0.557 0.3c-8e-3 0.179 0.227 0.336 0.527 0.35 0.299 0.014 0.548-0.12 0.556-0.299" fill="#3b3838"/><path d="m176.67 353.22c-0.731-0.442-0.177-1.14-0.509-1.536 1.206 0.449 0.8 1.344 0.8 1.344l-0.291 0.192" fill="#f9e004"/><path d="m177.06 353.24-0.296 0.194-0.102-0.214 0.296-0.195 0.102 0.215" fill="#646462"/></g><g fill="#c2ebf2"><path d="m183.98 317.2h1.24c1.294 9.554 1.233 14.412-0.194 23.93-0.373-0.224-0.745-0.446-1.12-0.666 0.315-9.736-0.221-14.472 0.074-23.264"/><path d="m184.71 340.92-2.041-3.344-3.737 4.672 0.589 2.459 1.221-0.019 7e-3 -0.835 3.961-2.933"/><path d="m184.95 340.92 2.038-3.344 3.479 4.354-0.572 2.668-0.999 0.33-0.225-1.392-3.721-2.616"/></g><g><path d="m196.46 314.95c4e-3 8e-3 8e-3 0.016 0.014 0.023l-0.014 0.776h-24.217v-0.776s-3e-3 -0.015 0-0.023l0.083-0.146c0.413-0.674 1.152-0.792 1.999-0.792h20.053c0.847 0 1.587 0.118 1.999 0.792l0.083 0.146" fill="#b8c4c6"/><path d="m192.38 315.02h-16.035v0.547h16.035v-0.547" fill="#839aa2"/><path d="m196.45 315.66 0.064 15.88c3e-3 0.416-0.335 0.756-0.754 0.756h-22.667c-0.418 0-0.759-0.34-0.762-0.756l-0.064-15.88h24.183" fill="#e7f0f2"/><path d="m185.86 323.98c-4e-3 -0.811-0.664-1.468-1.474-1.468s-1.465 0.657-1.461 1.468c3e-3 0.809 0.662 1.466 1.474 1.466 0.81 0 1.464-0.657 1.461-1.466" fill="#b8c4c6"/></g></g></svg>
